# Blender v2.93.0 OBJ File: 'longledge_preapply.blend'
# www.blender.org
mtllib building_top.mtl
o Cube.014_Cube.013
v 3.139618 2.889173 -6.591631
v 3.139618 13.469360 -6.591631
v 1.543450 4.020770 -20.177280
v 1.543450 13.469361 -20.177280
v 3.139618 4.020770 -20.177280
v 3.139618 13.469361 -20.177280
v 2.103936 2.889173 -6.591630
v 2.103936 4.020770 -20.177280
vt 0.375000 0.000000
vt 0.625000 0.000000
vt 0.625000 0.250000
vt 0.375000 0.250000
vt 0.625000 0.500000
vt 0.375000 0.500000
vt 0.625000 0.750000
vt 0.375000 0.750000
vt 0.125000 0.500000
vt 0.125000 0.750000
vt 0.875000 0.500000
vt 0.000000 0.000000
vt 0.000000 0.000000
vt 0.000000 0.000000
vn -0.9932 0.0000 0.1167
vn 0.0000 0.0000 -1.0000
vn 1.0000 0.0000 0.0000
vn 0.0000 -0.9965 -0.0830
vn 0.0000 1.0000 0.0000
vn 0.0000 0.9965 0.0830
usemtl Material.006
s off
f 1/1/1 2/2/1 4/3/1 3/4/1
f 3/4/2 4/3/2 6/5/2 5/6/2
f 5/6/3 6/5/3 2/7/3 1/8/3
f 3/9/4 5/6/4 1/10/4
f 6/5/5 4/11/5 2/7/5
f 7/12/6 1/13/6 8/14/6
o Cube.015_Cube.016
v 3.139618 2.889173 -0.999999
v 3.139618 13.469360 -0.999999
v 1.543450 2.889173 -6.591631
v 1.543450 13.469361 -6.591631
v 3.139618 2.889173 -6.591631
v 3.139618 13.469361 -6.591631
v 2.103936 2.889173 -1.000000
v 2.103936 2.889173 -6.591631
vt 0.375000 0.000000
vt 0.625000 0.000000
vt 0.625000 0.250000
vt 0.375000 0.250000
vt 0.625000 0.500000
vt 0.375000 0.500000
vt 0.625000 0.750000
vt 0.375000 0.750000
vt 0.125000 0.500000
vt 0.125000 0.750000
vt 0.875000 0.500000
vt 0.000000 0.000000
vt 0.000000 0.000000
vt 0.000000 0.000000
vn -0.9616 0.0000 0.2745
vn 0.0000 0.0000 -1.0000
vn 1.0000 0.0000 0.0000
vn 0.0000 -1.0000 0.0000
vn 0.0000 1.0000 0.0000
usemtl Material.006
s off
f 9/15/7 10/16/7 12/17/7 11/18/7
f 11/18/8 12/17/8 14/19/8 13/20/8
f 13/20/9 14/19/9 10/21/9 9/22/9
f 11/23/10 13/20/10 9/24/10
f 14/19/11 12/25/11 10/21/11
f 15/26/11 9/27/11 16/28/11
o Cube.016_Cube.017
v 3.139618 1.768162 13.469557
v 3.139618 13.469360 13.469557
v 1.543450 2.889173 -1.000000
v 1.543450 13.469361 -1.000000
v 3.139618 2.889173 -1.000000
v 3.139618 13.469361 -1.000000
v 2.103936 1.768162 13.469557
v 2.103936 2.889173 -1.000000
vt 0.375000 0.000000
vt 0.625000 0.000000
vt 0.625000 0.250000
vt 0.375000 0.250000
vt 0.625000 0.500000
vt 0.375000 0.500000
vt 0.625000 0.750000
vt 0.375000 0.750000
vt 0.125000 0.500000
vt 0.125000 0.750000
vt 0.875000 0.500000
vt 0.000000 0.000000
vt 0.000000 0.000000
vt 0.000000 0.000000
vn -0.9940 0.0000 0.1096
vn 0.0000 0.0000 -1.0000
vn 1.0000 0.0000 0.0000
vn 0.0000 -0.9970 -0.0772
vn 0.0000 1.0000 0.0000
vn 0.0000 0.9970 0.0772
usemtl Material.006
s off
f 17/29/12 18/30/12 20/31/12 19/32/12
f 19/32/13 20/31/13 22/33/13 21/34/13
f 21/34/14 22/33/14 18/35/14 17/36/14
f 19/37/15 21/34/15 17/38/15
f 22/33/16 20/39/16 18/35/16
f 23/40/17 17/41/17 24/42/17
