# Blender v3.0.0 OBJ File: 'longledge_preapply.blend'
# www.blender.org
mtllib building_inside.mtl
o Cube.035_Cube.036
v 2.363569 9.313059 13.510581
v 2.363569 11.313059 13.510581
v 2.363569 9.313059 -20.884907
v 2.363569 11.313059 -20.884907
v 17.569717 9.313059 13.510581
v 17.569717 11.313059 13.510581
v 17.569717 9.313059 -20.884907
v 17.569717 11.313059 -20.884907
v 2.363569 13.813059 13.510581
v 2.363569 13.813059 -20.884907
v 17.569717 13.813059 -20.884907
v 17.569717 13.813059 13.510581
v 2.363569 11.313059 -21.946980
v 2.363569 9.313059 -21.946980
v 17.569717 9.313059 -21.946980
v 17.569717 11.313059 -21.946980
v 2.363569 13.813059 -21.946980
v 17.569717 13.813059 -21.946980
v 2.363569 13.813059 13.510581
v 2.363569 15.813059 13.510581
v 2.363569 13.813059 -20.884907
v 2.363569 15.813059 -20.884907
v 17.569717 13.813059 13.510581
v 17.569717 15.813059 13.510581
v 17.569717 13.813059 -20.884907
v 17.569717 15.813059 -20.884907
v 2.363569 18.313059 13.510581
v 2.363569 18.313059 -20.884907
v 17.569717 18.313059 -20.884907
v 17.569717 18.313059 13.510581
v 2.363569 15.813059 -21.946980
v 2.363569 13.813059 -21.946980
v 17.569717 13.813059 -21.946980
v 17.569717 15.813059 -21.946980
v 2.363569 18.313059 -21.946980
v 17.569717 18.313059 -21.946980
v 2.363569 18.313059 13.510581
v 2.363569 20.313059 13.510581
v 2.363569 18.313059 -20.884907
v 2.363569 20.313059 -20.884907
v 17.569717 18.313059 13.510581
v 17.569717 20.313059 13.510581
v 17.569717 18.313059 -20.884907
v 17.569717 20.313059 -20.884907
v 2.363569 22.813059 13.510581
v 2.363569 22.813059 -20.884907
v 17.569717 22.813059 -20.884907
v 17.569717 22.813059 13.510581
v 2.363569 20.313059 -21.946980
v 2.363569 18.313059 -21.946980
v 17.569717 18.313059 -21.946980
v 17.569717 20.313059 -21.946980
v 2.363569 22.813059 -21.946980
v 17.569717 22.813059 -21.946980
v 2.363569 22.813059 13.510581
v 2.363569 24.813059 13.510581
v 2.363569 22.813059 -20.884907
v 2.363569 24.813059 -20.884907
v 17.569717 22.813059 13.510581
v 17.569717 24.813059 13.510581
v 17.569717 22.813059 -20.884907
v 17.569717 24.813059 -20.884907
v 2.363569 27.313059 13.510581
v 2.363569 27.313059 -20.884907
v 17.569717 27.313059 -20.884907
v 17.569717 27.313059 13.510581
v 2.363569 24.813059 -21.946980
v 2.363569 22.813059 -21.946980
v 17.569717 22.813059 -21.946980
v 17.569717 24.813059 -21.946980
v 2.363569 27.313059 -21.946980
v 17.569717 27.313059 -21.946980
v 2.363569 27.313059 13.510581
v 2.363569 29.313059 13.510581
v 2.363569 27.313059 -20.884907
v 2.363569 29.313059 -20.884907
v 17.569717 27.313059 13.510581
v 17.569717 29.313059 13.510581
v 17.569717 27.313059 -20.884907
v 17.569717 29.313059 -20.884907
v 2.363569 31.813059 13.510581
v 2.363569 31.813059 -20.884907
v 17.569717 31.813059 -20.884907
v 17.569717 31.813059 13.510581
v 2.363569 29.313059 -21.946980
v 2.363569 27.313059 -21.946980
v 17.569717 27.313059 -21.946980
v 17.569717 29.313059 -21.946980
v 2.363569 31.813059 -21.946980
v 17.569717 31.813059 -21.946980
v 2.363569 31.813059 13.510581
v 2.363569 33.813057 13.510581
v 2.363569 31.813059 -20.884907
v 2.363569 33.813057 -20.884907
v 17.569717 31.813059 13.510581
v 17.569717 33.813057 13.510581
v 17.569717 31.813059 -20.884907
v 17.569717 33.813057 -20.884907
v 2.363569 36.313057 13.510581
v 2.363569 36.313057 -20.884907
v 17.569717 36.313057 -20.884907
v 17.569717 36.313057 13.510581
v 2.363569 33.813057 -21.946980
v 2.363569 31.813059 -21.946980
v 17.569717 31.813059 -21.946980
v 17.569717 33.813057 -21.946980
v 2.363569 36.313057 -21.946980
v 17.569717 36.313057 -21.946980
v 2.363569 36.313057 13.510581
v 2.363569 38.313057 13.510581
v 2.363569 36.313057 -20.884907
v 2.363569 38.313057 -20.884907
v 17.569717 36.313057 13.510581
v 17.569717 38.313057 13.510581
v 17.569717 36.313057 -20.884907
v 17.569717 38.313057 -20.884907
v 2.363569 40.813057 13.510581
v 2.363569 40.813057 -20.884907
v 17.569717 40.813057 -20.884907
v 17.569717 40.813057 13.510581
v 2.363569 38.313057 -21.946980
v 2.363569 36.313057 -21.946980
v 17.569717 36.313057 -21.946980
v 17.569717 38.313057 -21.946980
v 2.363569 40.813057 -21.946980
v 17.569717 40.813057 -21.946980
v 2.363569 40.813057 13.510581
v 2.363569 42.813057 13.510581
v 2.363569 40.813057 -20.884907
v 2.363569 42.813057 -20.884907
v 17.569717 40.813057 13.510581
v 17.569717 42.813057 13.510581
v 17.569717 40.813057 -20.884907
v 17.569717 42.813057 -20.884907
v 2.363569 45.313057 13.510581
v 2.363569 45.313057 -20.884907
v 17.569717 45.313057 -20.884907
v 17.569717 45.313057 13.510581
v 2.363569 42.813057 -21.946980
v 2.363569 40.813057 -21.946980
v 17.569717 40.813057 -21.946980
v 17.569717 42.813057 -21.946980
v 2.363569 45.313057 -21.946980
v 17.569717 45.313057 -21.946980
vt 0.375000 0.000000
vt 0.625000 0.000000
vt 0.625000 0.250000
vt 0.375000 0.250000
vt 0.625000 0.250000
vt 0.625000 0.250000
vt 0.625000 0.250000
vt 0.375000 0.500000
vt 0.625000 0.500000
vt 0.625000 0.750000
vt 0.375000 0.750000
vt 0.625000 1.000000
vt 0.375000 1.000000
vt 0.125000 0.500000
vt 0.125000 0.750000
vt 0.625000 0.750000
vt 0.625000 1.000000
vt 0.625000 0.500000
vt 0.875000 0.500000
vt 0.875000 0.750000
vt 0.625000 0.500000
vt 0.875000 0.500000
vt 0.625000 0.000000
vt 0.375000 0.250000
vt 0.625000 0.500000
vt 0.375000 0.500000
vt 0.125000 0.500000
vt 0.375000 0.000000
vt 0.625000 0.000000
vt 0.625000 0.250000
vt 0.375000 0.250000
vt 0.625000 0.250000
vt 0.625000 0.250000
vt 0.625000 0.250000
vt 0.375000 0.500000
vt 0.625000 0.500000
vt 0.625000 0.750000
vt 0.375000 0.750000
vt 0.625000 1.000000
vt 0.375000 1.000000
vt 0.125000 0.500000
vt 0.125000 0.750000
vt 0.625000 0.750000
vt 0.625000 1.000000
vt 0.625000 0.500000
vt 0.875000 0.500000
vt 0.875000 0.750000
vt 0.625000 0.500000
vt 0.875000 0.500000
vt 0.625000 0.000000
vt 0.375000 0.250000
vt 0.625000 0.500000
vt 0.375000 0.500000
vt 0.125000 0.500000
vt 0.375000 0.000000
vt 0.625000 0.000000
vt 0.625000 0.250000
vt 0.375000 0.250000
vt 0.625000 0.250000
vt 0.625000 0.250000
vt 0.625000 0.250000
vt 0.375000 0.500000
vt 0.625000 0.500000
vt 0.625000 0.750000
vt 0.375000 0.750000
vt 0.625000 1.000000
vt 0.375000 1.000000
vt 0.125000 0.500000
vt 0.125000 0.750000
vt 0.625000 0.750000
vt 0.625000 1.000000
vt 0.625000 0.500000
vt 0.875000 0.500000
vt 0.875000 0.750000
vt 0.625000 0.500000
vt 0.875000 0.500000
vt 0.625000 0.000000
vt 0.375000 0.250000
vt 0.625000 0.500000
vt 0.375000 0.500000
vt 0.125000 0.500000
vt 0.375000 0.000000
vt 0.625000 0.000000
vt 0.625000 0.250000
vt 0.375000 0.250000
vt 0.625000 0.250000
vt 0.625000 0.250000
vt 0.625000 0.250000
vt 0.375000 0.500000
vt 0.625000 0.500000
vt 0.625000 0.750000
vt 0.375000 0.750000
vt 0.625000 1.000000
vt 0.375000 1.000000
vt 0.125000 0.500000
vt 0.125000 0.750000
vt 0.625000 0.750000
vt 0.625000 1.000000
vt 0.625000 0.500000
vt 0.875000 0.500000
vt 0.875000 0.750000
vt 0.625000 0.500000
vt 0.875000 0.500000
vt 0.625000 0.000000
vt 0.375000 0.250000
vt 0.625000 0.500000
vt 0.375000 0.500000
vt 0.125000 0.500000
vt 0.375000 0.000000
vt 0.625000 0.000000
vt 0.625000 0.250000
vt 0.375000 0.250000
vt 0.625000 0.250000
vt 0.625000 0.250000
vt 0.625000 0.250000
vt 0.375000 0.500000
vt 0.625000 0.500000
vt 0.625000 0.750000
vt 0.375000 0.750000
vt 0.625000 1.000000
vt 0.375000 1.000000
vt 0.125000 0.500000
vt 0.125000 0.750000
vt 0.625000 0.750000
vt 0.625000 1.000000
vt 0.625000 0.500000
vt 0.875000 0.500000
vt 0.875000 0.750000
vt 0.625000 0.500000
vt 0.875000 0.500000
vt 0.625000 0.000000
vt 0.375000 0.250000
vt 0.625000 0.500000
vt 0.375000 0.500000
vt 0.125000 0.500000
vt 0.375000 0.000000
vt 0.625000 0.000000
vt 0.625000 0.250000
vt 0.375000 0.250000
vt 0.625000 0.250000
vt 0.625000 0.250000
vt 0.625000 0.250000
vt 0.375000 0.500000
vt 0.625000 0.500000
vt 0.625000 0.750000
vt 0.375000 0.750000
vt 0.625000 1.000000
vt 0.375000 1.000000
vt 0.125000 0.500000
vt 0.125000 0.750000
vt 0.625000 0.750000
vt 0.625000 1.000000
vt 0.625000 0.500000
vt 0.875000 0.500000
vt 0.875000 0.750000
vt 0.625000 0.500000
vt 0.875000 0.500000
vt 0.625000 0.000000
vt 0.375000 0.250000
vt 0.625000 0.500000
vt 0.375000 0.500000
vt 0.125000 0.500000
vt 0.375000 0.000000
vt 0.625000 0.000000
vt 0.625000 0.250000
vt 0.375000 0.250000
vt 0.625000 0.250000
vt 0.625000 0.250000
vt 0.625000 0.250000
vt 0.375000 0.500000
vt 0.625000 0.500000
vt 0.625000 0.750000
vt 0.375000 0.750000
vt 0.625000 1.000000
vt 0.375000 1.000000
vt 0.125000 0.500000
vt 0.125000 0.750000
vt 0.625000 0.750000
vt 0.625000 1.000000
vt 0.625000 0.500000
vt 0.875000 0.500000
vt 0.875000 0.750000
vt 0.625000 0.500000
vt 0.875000 0.500000
vt 0.625000 0.000000
vt 0.375000 0.250000
vt 0.625000 0.500000
vt 0.375000 0.500000
vt 0.125000 0.500000
vt 0.375000 0.000000
vt 0.625000 0.000000
vt 0.625000 0.250000
vt 0.375000 0.250000
vt 0.625000 0.250000
vt 0.625000 0.250000
vt 0.625000 0.250000
vt 0.375000 0.500000
vt 0.625000 0.500000
vt 0.625000 0.750000
vt 0.375000 0.750000
vt 0.625000 1.000000
vt 0.375000 1.000000
vt 0.125000 0.500000
vt 0.125000 0.750000
vt 0.625000 0.750000
vt 0.625000 1.000000
vt 0.625000 0.500000
vt 0.875000 0.500000
vt 0.875000 0.750000
vt 0.625000 0.500000
vt 0.875000 0.500000
vt 0.625000 0.000000
vt 0.375000 0.250000
vt 0.625000 0.500000
vt 0.375000 0.500000
vt 0.125000 0.500000
vn -1.0000 0.0000 0.0000
vn 1.0000 0.0000 0.0000
vn 0.0000 0.0000 1.0000
vn 0.0000 -1.0000 0.0000
vn 0.0000 1.0000 0.0000
vn 0.0000 0.0000 -1.0000
usemtl Material.015
s off
f 1/1/1 2/2/1 4/3/1 3/4/1
f 4/3/1 10/5/1 17/6/1 13/7/1
f 7/8/2 8/9/2 6/10/2 5/11/2
f 5/11/3 6/10/3 2/12/3 1/13/3
f 3/14/4 7/8/4 5/11/4 1/15/4
f 2/12/3 6/10/3 12/16/3 9/17/3
f 11/18/5 10/19/5 9/20/5 12/16/5
f 10/19/5 11/18/5 18/21/5 17/22/5
f 6/10/2 8/9/2 11/18/2 12/16/2
f 4/3/1 2/2/1 9/23/1 10/5/1
f 14/24/6 13/7/6 16/25/6 15/26/6
f 16/25/6 13/7/6 17/6/6 18/21/6
f 3/4/1 4/3/1 13/7/1 14/24/1
f 11/18/2 8/9/2 16/25/2 18/21/2
f 8/9/2 7/8/2 15/26/2 16/25/2
f 7/8/4 3/14/4 14/27/4 15/26/4
f 19/28/1 20/29/1 22/30/1 21/31/1
f 22/30/1 28/32/1 35/33/1 31/34/1
f 25/35/2 26/36/2 24/37/2 23/38/2
f 23/38/3 24/37/3 20/39/3 19/40/3
f 21/41/4 25/35/4 23/38/4 19/42/4
f 20/39/3 24/37/3 30/43/3 27/44/3
f 29/45/5 28/46/5 27/47/5 30/43/5
f 28/46/5 29/45/5 36/48/5 35/49/5
f 24/37/2 26/36/2 29/45/2 30/43/2
f 22/30/1 20/29/1 27/50/1 28/32/1
f 32/51/6 31/34/6 34/52/6 33/53/6
f 34/52/6 31/34/6 35/33/6 36/48/6
f 21/31/1 22/30/1 31/34/1 32/51/1
f 29/45/2 26/36/2 34/52/2 36/48/2
f 26/36/2 25/35/2 33/53/2 34/52/2
f 25/35/4 21/41/4 32/54/4 33/53/4
f 37/55/1 38/56/1 40/57/1 39/58/1
f 40/57/1 46/59/1 53/60/1 49/61/1
f 43/62/2 44/63/2 42/64/2 41/65/2
f 41/65/3 42/64/3 38/66/3 37/67/3
f 39/68/4 43/62/4 41/65/4 37/69/4
f 38/66/3 42/64/3 48/70/3 45/71/3
f 47/72/5 46/73/5 45/74/5 48/70/5
f 46/73/5 47/72/5 54/75/5 53/76/5
f 42/64/2 44/63/2 47/72/2 48/70/2
f 40/57/1 38/56/1 45/77/1 46/59/1
f 50/78/6 49/61/6 52/79/6 51/80/6
f 52/79/6 49/61/6 53/60/6 54/75/6
f 39/58/1 40/57/1 49/61/1 50/78/1
f 47/72/2 44/63/2 52/79/2 54/75/2
f 44/63/2 43/62/2 51/80/2 52/79/2
f 43/62/4 39/68/4 50/81/4 51/80/4
f 55/82/1 56/83/1 58/84/1 57/85/1
f 58/84/1 64/86/1 71/87/1 67/88/1
f 61/89/2 62/90/2 60/91/2 59/92/2
f 59/92/3 60/91/3 56/93/3 55/94/3
f 57/95/4 61/89/4 59/92/4 55/96/4
f 56/93/3 60/91/3 66/97/3 63/98/3
f 65/99/5 64/100/5 63/101/5 66/97/5
f 64/100/5 65/99/5 72/102/5 71/103/5
f 60/91/2 62/90/2 65/99/2 66/97/2
f 58/84/1 56/83/1 63/104/1 64/86/1
f 68/105/6 67/88/6 70/106/6 69/107/6
f 70/106/6 67/88/6 71/87/6 72/102/6
f 57/85/1 58/84/1 67/88/1 68/105/1
f 65/99/2 62/90/2 70/106/2 72/102/2
f 62/90/2 61/89/2 69/107/2 70/106/2
f 61/89/4 57/95/4 68/108/4 69/107/4
f 73/109/1 74/110/1 76/111/1 75/112/1
f 76/111/1 82/113/1 89/114/1 85/115/1
f 79/116/2 80/117/2 78/118/2 77/119/2
f 77/119/3 78/118/3 74/120/3 73/121/3
f 75/122/4 79/116/4 77/119/4 73/123/4
f 74/120/3 78/118/3 84/124/3 81/125/3
f 83/126/5 82/127/5 81/128/5 84/124/5
f 82/127/5 83/126/5 90/129/5 89/130/5
f 78/118/2 80/117/2 83/126/2 84/124/2
f 76/111/1 74/110/1 81/131/1 82/113/1
f 86/132/6 85/115/6 88/133/6 87/134/6
f 88/133/6 85/115/6 89/114/6 90/129/6
f 75/112/1 76/111/1 85/115/1 86/132/1
f 83/126/2 80/117/2 88/133/2 90/129/2
f 80/117/2 79/116/2 87/134/2 88/133/2
f 79/116/4 75/122/4 86/135/4 87/134/4
f 91/136/1 92/137/1 94/138/1 93/139/1
f 94/138/1 100/140/1 107/141/1 103/142/1
f 97/143/2 98/144/2 96/145/2 95/146/2
f 95/146/3 96/145/3 92/147/3 91/148/3
f 93/149/4 97/143/4 95/146/4 91/150/4
f 92/147/3 96/145/3 102/151/3 99/152/3
f 101/153/5 100/154/5 99/155/5 102/151/5
f 100/154/5 101/153/5 108/156/5 107/157/5
f 96/145/2 98/144/2 101/153/2 102/151/2
f 94/138/1 92/137/1 99/158/1 100/140/1
f 104/159/6 103/142/6 106/160/6 105/161/6
f 106/160/6 103/142/6 107/141/6 108/156/6
f 93/139/1 94/138/1 103/142/1 104/159/1
f 101/153/2 98/144/2 106/160/2 108/156/2
f 98/144/2 97/143/2 105/161/2 106/160/2
f 97/143/4 93/149/4 104/162/4 105/161/4
f 109/163/1 110/164/1 112/165/1 111/166/1
f 112/165/1 118/167/1 125/168/1 121/169/1
f 115/170/2 116/171/2 114/172/2 113/173/2
f 113/173/3 114/172/3 110/174/3 109/175/3
f 111/176/4 115/170/4 113/173/4 109/177/4
f 110/174/3 114/172/3 120/178/3 117/179/3
f 119/180/5 118/181/5 117/182/5 120/178/5
f 118/181/5 119/180/5 126/183/5 125/184/5
f 114/172/2 116/171/2 119/180/2 120/178/2
f 112/165/1 110/164/1 117/185/1 118/167/1
f 122/186/6 121/169/6 124/187/6 123/188/6
f 124/187/6 121/169/6 125/168/6 126/183/6
f 111/166/1 112/165/1 121/169/1 122/186/1
f 119/180/2 116/171/2 124/187/2 126/183/2
f 116/171/2 115/170/2 123/188/2 124/187/2
f 115/170/4 111/176/4 122/189/4 123/188/4
f 127/190/1 128/191/1 130/192/1 129/193/1
f 130/192/1 136/194/1 143/195/1 139/196/1
f 133/197/2 134/198/2 132/199/2 131/200/2
f 131/200/3 132/199/3 128/201/3 127/202/3
f 129/203/4 133/197/4 131/200/4 127/204/4
f 128/201/3 132/199/3 138/205/3 135/206/3
f 137/207/5 136/208/5 135/209/5 138/205/5
f 136/208/5 137/207/5 144/210/5 143/211/5
f 132/199/2 134/198/2 137/207/2 138/205/2
f 130/192/1 128/191/1 135/212/1 136/194/1
f 140/213/6 139/196/6 142/214/6 141/215/6
f 142/214/6 139/196/6 143/195/6 144/210/6
f 129/193/1 130/192/1 139/196/1 140/213/1
f 137/207/2 134/198/2 142/214/2 144/210/2
f 134/198/2 133/197/2 141/215/2 142/214/2
f 133/197/4 129/203/4 140/216/4 141/215/4
