# Blender v2.93.0 OBJ File: 'longledge_preapply.blend'
# www.blender.org
mtllib granite_tophill.mtl
o Cube.034_Cube.035
v -2.033568 1.278672 -62.662762
v -2.033568 3.312257 -62.662762
v -2.033568 1.278672 -79.670052
v -2.033568 3.432098 -79.670052
v 1.659888 1.278672 -62.662762
v 1.659888 3.312257 -62.662762
v 1.659888 1.278672 -75.148727
v 1.659888 3.432098 -75.148727
v -2.033568 1.278672 -66.293877
v -2.033568 3.337843 -66.293877
v 8.484213 1.278672 -68.049057
v 8.484213 3.337843 -68.049057
v 6.712794 3.337843 -66.293877
v 6.712794 3.312257 -62.662762
v 6.712794 1.278672 -62.662762
v 6.712794 1.278672 -66.293877
v 1.659888 3.312257 -60.964554
v 1.659888 1.278672 -60.964554
v 6.712794 3.312257 -60.964554
v 6.712794 1.278672 -60.964554
vt 0.375000 0.053376
vt 0.625000 0.053376
vt 0.625000 0.250000
vt 0.375000 0.250000
vt 0.625000 0.500000
vt 0.375000 0.500000
vt 0.625000 0.750000
vt 0.375000 0.750000
vt 0.375000 0.750000
vt 0.625000 0.750000
vt 0.625000 1.000000
vt 0.375000 1.000000
vt 0.125000 0.696624
vt 0.375000 0.696624
vt 0.125000 0.750000
vt 0.625000 0.696624
vt 0.875000 0.696624
vt 0.875000 0.750000
vt 0.875000 0.500000
vt 0.125000 0.500000
vt 0.375000 0.000000
vt 0.625000 0.000000
vt 0.375000 0.696624
vt 0.625000 0.696624
vt 0.625000 0.750000
vt 0.375000 0.750000
vt 0.375000 0.750000
vt 0.625000 0.750000
vn -1.0000 0.0000 0.0000
vn 0.7744 0.0000 -0.6326
vn 0.0000 0.0000 1.0000
vn 0.0000 -1.0000 -0.0000
vn 0.0008 1.0000 0.0063
vn -0.0019 0.9999 0.0098
vn 0.7209 0.0000 -0.6930
vn 1.0000 0.0000 0.0000
vn 0.7038 0.0000 0.7104
vn -0.0022 1.0000 0.0040
vn 0.0000 1.0000 0.0000
usemtl None
s off
f 9/1/1 10/2/1 4/3/1 3/4/1
f 3/4/2 4/3/2 8/5/2 7/6/2
f 6/7/1 5/8/1 18/9/1 17/10/1
f 5/8/3 6/7/3 2/11/3 1/12/3
f 9/13/4 11/14/4 5/8/4 1/15/4
f 12/16/5 10/17/5 2/18/5 6/7/5
f 8/5/6 4/19/6 10/17/6 12/16/6
f 3/20/4 7/6/4 11/14/4 9/13/4
f 7/6/7 8/5/7 12/16/7 11/14/7
f 1/21/1 2/22/1 10/2/1 9/1/1
f 16/23/8 13/24/8 14/25/8 15/26/8
f 11/14/9 12/16/9 13/24/9 16/23/9
f 5/8/4 11/14/4 16/23/4 15/26/4
f 12/16/10 6/7/10 14/25/10 13/24/10
f 17/10/3 18/9/3 20/27/3 19/28/3
f 14/25/11 6/7/11 17/10/11 19/28/11
f 15/26/8 14/25/8 19/28/8 20/27/8
f 5/8/4 15/26/4 20/27/4 18/9/4
