# Blender v2.93.0 OBJ File: 'longledge_postapply.blend'
# www.blender.org
mtllib longledge_rail_middle_up_2.mtl
o Cylinder_collider.002_Cylinder.011
v -9.254519 2.164458 -21.257887
v -9.251418 1.054183 -6.422906
v -9.249578 2.163977 -21.257895
v -9.246478 1.053705 -6.422950
v -9.244827 2.162555 -21.257921
v -9.241728 1.052288 -6.423079
v -9.240450 2.160245 -21.257963
v -9.237350 1.049987 -6.423289
v -9.236612 2.157136 -21.258018
v -9.233512 1.046891 -6.423572
v -9.233463 2.153348 -21.258087
v -9.230363 1.043118 -6.423917
v -9.231123 2.149027 -21.258167
v -9.228023 1.038814 -6.424310
v -9.229682 2.144338 -21.258251
v -9.226582 1.034144 -6.424736
v -9.229195 2.139462 -21.258341
v -9.226095 1.029287 -6.425179
v -9.229682 2.134585 -21.258429
v -9.226582 1.024430 -6.425623
v -9.231123 2.129896 -21.258514
v -9.228023 1.019759 -6.426049
v -9.233463 2.125575 -21.258593
v -9.230363 1.015455 -6.426442
v -9.236612 2.121787 -21.258661
v -9.233512 1.011682 -6.426787
v -9.240450 2.118678 -21.258717
v -9.237350 1.008586 -6.427070
v -9.244827 2.116368 -21.258759
v -9.241728 1.006285 -6.427279
v -9.249578 2.114946 -21.258785
v -9.246478 1.004869 -6.427409
v -9.254519 2.114466 -21.258793
v -9.251418 1.004390 -6.427453
v -9.259459 2.114946 -21.258785
v -9.256359 1.004869 -6.427409
v -9.264210 2.116368 -21.258759
v -9.261109 1.006285 -6.427279
v -9.268587 2.118678 -21.258717
v -9.265488 1.008586 -6.427070
v -9.272425 2.121787 -21.258661
v -9.269325 1.011682 -6.426787
v -9.275574 2.125575 -21.258593
v -9.272474 1.015455 -6.426442
v -9.277914 2.129896 -21.258514
v -9.274815 1.019759 -6.426049
v -9.279355 2.134585 -21.258429
v -9.276256 1.024430 -6.425623
v -9.279842 2.139462 -21.258341
v -9.276742 1.029287 -6.425179
v -9.279355 2.144338 -21.258251
v -9.276256 1.034144 -6.424736
v -9.277914 2.149027 -21.258167
v -9.274815 1.038814 -6.424310
v -9.275575 2.153348 -21.258087
v -9.272474 1.043118 -6.423917
v -9.272425 2.157136 -21.258018
v -9.269325 1.046891 -6.423572
v -9.268587 2.160245 -21.257963
v -9.265488 1.049987 -6.423289
v -9.264210 2.162555 -21.257921
v -9.261109 1.052288 -6.423079
v -9.259459 2.163977 -21.257895
v -9.256359 1.053705 -6.422950
v -9.251754 1.271660 -8.036183
v -9.246814 1.271181 -8.036226
v -9.242063 1.269764 -8.036352
v -9.237685 1.267463 -8.036556
v -9.233848 1.264366 -8.036831
v -9.230698 1.260593 -8.037167
v -9.228358 1.256288 -8.037549
v -9.226917 1.251616 -8.037964
v -9.226430 1.246758 -8.038395
v -9.226917 1.241900 -8.038828
v -9.228358 1.237229 -8.039242
v -9.230698 1.232924 -8.039625
v -9.233848 1.229150 -8.039959
v -9.237685 1.226053 -8.040235
v -9.242063 1.223752 -8.040439
v -9.246814 1.222335 -8.040565
v -9.251754 1.221857 -8.040607
v -9.256694 1.222335 -8.040565
v -9.261445 1.223752 -8.040439
v -9.265822 1.226053 -8.040235
v -9.269660 1.229150 -8.039959
v -9.272809 1.232924 -8.039625
v -9.275149 1.237229 -8.039242
v -9.276590 1.241900 -8.038828
v -9.277078 1.246758 -8.038395
v -9.276590 1.251616 -8.037964
v -9.275149 1.256288 -8.037549
v -9.272809 1.260593 -8.037167
v -9.269660 1.264366 -8.036831
v -9.265822 1.267463 -8.036556
v -9.261445 1.269764 -8.036352
v -9.256694 1.271181 -8.036226
v -9.249216 2.103026 -19.575735
v -9.244465 2.101607 -19.575836
v -9.240088 2.099303 -19.576000
v -9.236250 2.096202 -19.576221
v -9.233100 2.092423 -19.576488
v -9.230761 2.088112 -19.576796
v -9.229320 2.083434 -19.577129
v -9.228832 2.078569 -19.577477
v -9.229320 2.073704 -19.577820
v -9.230761 2.069026 -19.578154
v -9.233100 2.064715 -19.578461
v -9.236250 2.060937 -19.578728
v -9.240088 2.057835 -19.578949
v -9.244465 2.055531 -19.579113
v -9.249216 2.054112 -19.579214
v -9.254156 2.053633 -19.579248
v -9.259096 2.054112 -19.579214
v -9.263847 2.055531 -19.579113
v -9.268225 2.057835 -19.578949
v -9.272062 2.060937 -19.578728
v -9.275211 2.064715 -19.578461
v -9.277552 2.069026 -19.578154
v -9.278993 2.073704 -19.577820
v -9.279480 2.078569 -19.577477
v -9.278993 2.083434 -19.577129
v -9.277552 2.088112 -19.576796
v -9.275211 2.092423 -19.576488
v -9.272062 2.096202 -19.576221
v -9.268225 2.099303 -19.576000
v -9.263847 2.101607 -19.575836
v -9.259096 2.103026 -19.575735
v -9.254156 2.103506 -19.575701
v -9.253854 2.009302 -18.125799
v -9.248914 2.008823 -18.125834
v -9.244164 2.007404 -18.125938
v -9.239785 2.005100 -18.126106
v -9.235948 2.002000 -18.126335
v -9.232799 1.998222 -18.126612
v -9.230458 1.993911 -18.126926
v -9.229017 1.989234 -18.127270
v -9.228531 1.984370 -18.127628
v -9.229017 1.979506 -18.127983
v -9.230458 1.974829 -18.128326
v -9.232799 1.970519 -18.128643
v -9.235948 1.966741 -18.128920
v -9.239785 1.963640 -18.129148
v -9.244164 1.961336 -18.129316
v -9.248914 1.959917 -18.129419
v -9.253854 1.959438 -18.129456
v -9.258795 1.959917 -18.129419
v -9.263545 1.961336 -18.129316
v -9.267923 1.963640 -18.129148
v -9.271761 1.966741 -18.128920
v -9.274910 1.970519 -18.128643
v -9.277250 1.974829 -18.128326
v -9.278691 1.979506 -18.127983
v -9.279178 1.984370 -18.127628
v -9.278691 1.989234 -18.127270
v -9.277250 1.993911 -18.126926
v -9.274910 1.998222 -18.126612
v -9.271761 2.002000 -18.126335
v -9.267923 2.005100 -18.126106
v -9.263545 2.007404 -18.125938
v -9.258795 2.008823 -18.125834
vt 1.000000 0.945941
vt 1.000000 1.000000
vt 0.968750 1.000000
vt 0.968750 0.945941
vt 0.937500 1.000000
vt 0.937500 0.945941
vt 0.906250 1.000000
vt 0.906250 0.945941
vt 0.875000 1.000000
vt 0.875000 0.945941
vt 0.843750 1.000000
vt 0.843750 0.945941
vt 0.812500 1.000000
vt 0.812500 0.945941
vt 0.781250 1.000000
vt 0.781250 0.945941
vt 0.750000 1.000000
vt 0.750000 0.945941
vt 0.718750 1.000000
vt 0.718750 0.945941
vt 0.687500 1.000000
vt 0.687500 0.945941
vt 0.656250 1.000000
vt 0.656250 0.945941
vt 0.625000 1.000000
vt 0.625000 0.945941
vt 0.593750 1.000000
vt 0.593750 0.945941
vt 0.562500 1.000000
vt 0.562500 0.945941
vt 0.531250 1.000000
vt 0.531250 0.945941
vt 0.500000 1.000000
vt 0.500000 0.945941
vt 0.468750 1.000000
vt 0.468750 0.945941
vt 0.437500 1.000000
vt 0.437500 0.945941
vt 0.406250 1.000000
vt 0.406250 0.945941
vt 0.375000 1.000000
vt 0.375000 0.945941
vt 0.343750 1.000000
vt 0.343750 0.945941
vt 0.312500 1.000000
vt 0.312500 0.945941
vt 0.281250 1.000000
vt 0.281250 0.945941
vt 0.250000 1.000000
vt 0.250000 0.945941
vt 0.218750 1.000000
vt 0.218750 0.945941
vt 0.187500 1.000000
vt 0.187500 0.945941
vt 0.156250 1.000000
vt 0.156250 0.945941
vt 0.125000 1.000000
vt 0.125000 0.945941
vt 0.093750 1.000000
vt 0.093750 0.945941
vt 0.062500 1.000000
vt 0.062500 0.945941
vt 0.031250 1.000000
vt 0.031250 0.945941
vt 0.000000 1.000000
vt 0.000000 0.945941
vt 0.000000 0.500000
vt 0.968750 0.500000
vt 0.937500 0.500000
vt 0.906250 0.500000
vt 0.875000 0.500000
vt 0.843750 0.500000
vt 0.812500 0.500000
vt 0.781250 0.500000
vt 0.750000 0.500000
vt 0.718750 0.500000
vt 0.687500 0.500000
vt 0.656250 0.500000
vt 0.625000 0.500000
vt 0.593750 0.500000
vt 0.562500 0.500000
vt 0.531250 0.500000
vt 0.500000 0.500000
vt 0.468750 0.500000
vt 0.437500 0.500000
vt 0.406250 0.500000
vt 0.375000 0.500000
vt 0.343750 0.500000
vt 0.312500 0.500000
vt 0.281250 0.500000
vt 0.250000 0.500000
vt 0.218750 0.500000
vt 0.187500 0.500000
vt 0.156250 0.500000
vt 0.125000 0.500000
vt 0.093750 0.500000
vt 0.062500 0.500000
vt 0.031250 0.500000
vt 0.031250 0.607145
vt 0.000000 0.607145
vt 0.062500 0.607145
vt 0.093750 0.607145
vt 0.125000 0.607145
vt 0.156250 0.607145
vt 0.187500 0.607145
vt 0.218750 0.607145
vt 0.250000 0.607145
vt 0.281250 0.607145
vt 0.312500 0.607145
vt 0.343750 0.607145
vt 0.375000 0.607145
vt 0.406250 0.607145
vt 0.437500 0.607145
vt 0.468750 0.607145
vt 0.500000 0.607145
vt 0.531250 0.607145
vt 0.562500 0.607145
vt 0.593750 0.607145
vt 0.625000 0.607145
vt 0.656250 0.607145
vt 0.687500 0.607145
vt 0.718750 0.607145
vt 0.750000 0.607145
vt 0.781250 0.607145
vt 0.812500 0.607145
vt 0.843750 0.607145
vt 0.875000 0.607145
vt 0.906250 0.607145
vt 0.937500 0.607145
vt 0.968750 0.607145
vt 1.000000 0.607145
vt 1.000000 0.500000
vt 1.000000 0.558459
vt 0.968750 0.558459
vt 0.937500 0.558459
vt 0.906250 0.558459
vt 0.875000 0.558459
vt 0.843750 0.558459
vt 0.812500 0.558459
vt 0.781250 0.558459
vt 0.750000 0.558459
vt 0.718750 0.558459
vt 0.687500 0.558459
vt 0.656250 0.558459
vt 0.625000 0.558459
vt 0.593750 0.558459
vt 0.562500 0.558459
vt 0.531250 0.558459
vt 0.500000 0.558459
vt 0.468750 0.558459
vt 0.437500 0.558459
vt 0.406250 0.558459
vt 0.375000 0.558459
vt 0.343750 0.558459
vt 0.312500 0.558459
vt 0.281250 0.558459
vt 0.250000 0.558459
vt 0.218750 0.558459
vt 0.187500 0.558459
vt 0.156250 0.558459
vt 0.125000 0.558459
vt 0.093750 0.558459
vt 0.062500 0.558459
vt 0.031250 0.558459
vt 0.000000 0.558459
vn -0.0000 0.9947 0.1033
vn 0.0000 0.9910 0.1336
vn 0.1931 0.9724 0.1310
vn 0.1924 0.9761 0.1013
vn 0.3792 0.9170 0.1235
vn 0.3779 0.9209 0.0956
vn 0.5516 0.8266 0.1113
vn 0.5498 0.8308 0.0862
vn 0.7036 0.7042 0.0948
vn 0.7016 0.7087 0.0735
vn 0.8292 0.5540 0.0745
vn 0.8273 0.5588 0.0579
vn 0.9230 0.3813 0.0512
vn 0.9215 0.3864 0.0400
vn 0.9808 0.1933 0.0259
vn 0.9799 0.1983 0.0204
vn 1.0000 -0.0026 -0.0006
vn 1.0000 0.0019 0.0000
vn 0.9797 -0.1984 -0.0270
vn 0.9807 -0.1946 -0.0204
vn 0.9211 -0.3859 -0.0522
vn 0.9228 -0.3831 -0.0400
vn 0.8267 -0.5575 -0.0753
vn 0.8291 -0.5561 -0.0579
vn 0.7009 -0.7069 -0.0954
vn 0.7035 -0.7068 -0.0736
vn 0.5491 -0.8283 -0.1118
vn 0.5515 -0.8297 -0.0863
vn 0.3773 -0.9178 -0.1238
vn 0.3792 -0.9204 -0.0957
vn 0.1921 -0.9726 -0.1312
vn 0.1931 -0.9759 -0.1014
vn 0.0000 -0.9910 -0.1336
vn 0.0000 -0.9946 -0.1033
vn -0.1920 -0.9726 -0.1311
vn -0.1931 -0.9759 -0.1013
vn -0.3773 -0.9178 -0.1236
vn -0.3792 -0.9204 -0.0955
vn -0.5491 -0.8283 -0.1115
vn -0.5516 -0.8297 -0.0861
vn -0.7010 -0.7068 -0.0951
vn -0.7036 -0.7068 -0.0733
vn -0.8267 -0.5576 -0.0750
vn -0.8291 -0.5562 -0.0576
vn -0.9211 -0.3859 -0.0518
vn -0.9228 -0.3832 -0.0396
vn -0.9797 -0.1985 -0.0266
vn -0.9807 -0.1946 -0.0200
vn -1.0000 -0.0027 -0.0002
vn -1.0000 0.0019 0.0004
vn -0.9808 0.1933 0.0263
vn -0.9799 0.1982 0.0208
vn -0.9230 0.3813 0.0516
vn -0.9215 0.3863 0.0403
vn -0.8292 0.5539 0.0748
vn -0.8273 0.5588 0.0582
vn -0.7036 0.7042 0.0951
vn -0.7017 0.7087 0.0738
vn -0.5515 0.8267 0.1115
vn -0.5498 0.8308 0.0864
vn -0.3791 0.9170 0.1237
vn -0.3779 0.9209 0.0957
vn -0.1930 0.9724 0.1311
vn -0.1924 0.9761 0.1014
vn 0.0000 -0.0909 0.9959
vn 0.0000 0.0181 -0.9998
vn -0.1927 0.9789 0.0676
vn -0.0000 0.9976 0.0689
vn -0.3785 0.9234 0.0638
vn -0.5506 0.8328 0.0576
vn -0.7025 0.7100 0.0492
vn -0.8281 0.5593 0.0388
vn -0.9220 0.3861 0.0269
vn -0.9803 0.1973 0.0138
vn -1.0000 0.0002 0.0002
vn -0.9803 -0.1969 -0.0134
vn -0.9222 -0.3858 -0.0264
vn -0.8283 -0.5590 -0.0384
vn -0.7027 -0.7098 -0.0489
vn -0.5508 -0.8326 -0.0574
vn -0.3787 -0.9233 -0.0637
vn -0.1928 -0.9789 -0.0675
vn -0.0000 -0.9976 -0.0689
vn 0.1927 -0.9789 -0.0676
vn 0.3786 -0.9233 -0.0638
vn 0.5508 -0.8326 -0.0576
vn 0.7027 -0.7098 -0.0491
vn 0.8283 -0.5589 -0.0388
vn 0.9222 -0.3857 -0.0268
vn 0.9803 -0.1969 -0.0138
vn 1.0000 0.0002 -0.0002
vn 0.9802 0.1973 0.0134
vn 0.9220 0.3862 0.0265
vn 0.8281 0.5593 0.0384
vn 0.7024 0.7101 0.0489
vn 0.5506 0.8328 0.0574
vn 0.3785 0.9234 0.0637
vn 0.1927 0.9789 0.0675
vn -0.0000 0.9993 0.0362
vn -0.0000 0.9987 0.0505
vn 0.1925 0.9800 0.0496
vn 0.1924 0.9807 0.0355
vn 0.3782 0.9245 0.0467
vn 0.3781 0.9252 0.0334
vn 0.5503 0.8339 0.0421
vn 0.5500 0.8346 0.0301
vn 0.7021 0.7112 0.0358
vn 0.7019 0.7118 0.0256
vn 0.8278 0.5604 0.0282
vn 0.8276 0.5610 0.0201
vn 0.9218 0.3872 0.0194
vn 0.9217 0.3877 0.0138
vn 0.9801 0.1982 0.0098
vn 0.9801 0.1986 0.0070
vn 1.0000 0.0009 -0.0002
vn 1.0000 0.0012 -0.0002
vn 0.9805 -0.1964 -0.0102
vn 0.9805 -0.1964 -0.0073
vn 0.9225 -0.3856 -0.0197
vn 0.9225 -0.3858 -0.0142
vn 0.8286 -0.5591 -0.0285
vn 0.8286 -0.5594 -0.0204
vn 0.7030 -0.7102 -0.0361
vn 0.7031 -0.7106 -0.0259
vn 0.5511 -0.8334 -0.0423
vn 0.5511 -0.8339 -0.0303
vn 0.3789 -0.9243 -0.0468
vn 0.3789 -0.9248 -0.0336
vn 0.1929 -0.9800 -0.0496
vn 0.1928 -0.9806 -0.0356
vn -0.0000 -0.9987 -0.0505
vn -0.0000 -0.9993 -0.0362
vn -0.1929 -0.9800 -0.0495
vn -0.1929 -0.9806 -0.0355
vn -0.3789 -0.9243 -0.0467
vn -0.3789 -0.9248 -0.0334
vn -0.5511 -0.8334 -0.0420
vn -0.5512 -0.8339 -0.0301
vn -0.7030 -0.7102 -0.0358
vn -0.7031 -0.7106 -0.0256
vn -0.8286 -0.5592 -0.0281
vn -0.8286 -0.5594 -0.0201
vn -0.9225 -0.3856 -0.0193
vn -0.9225 -0.3858 -0.0138
vn -0.9805 -0.1965 -0.0097
vn -0.9805 -0.1964 -0.0069
vn -1.0000 0.0009 0.0002
vn -1.0000 0.0012 0.0003
vn -0.9801 0.1982 0.0102
vn -0.9801 0.1986 0.0074
vn -0.9218 0.3871 0.0198
vn -0.9217 0.3876 0.0142
vn -0.8278 0.5603 0.0285
vn -0.8276 0.5610 0.0205
vn -0.7022 0.7111 0.0361
vn -0.7019 0.7118 0.0259
vn -0.5503 0.8339 0.0423
vn -0.5501 0.8346 0.0304
vn -0.3782 0.9245 0.0469
vn -0.3781 0.9252 0.0336
vn -0.1925 0.9800 0.0496
vn -0.1924 0.9807 0.0356
usemtl None
s 1
f 65/1/1 2/2/2 4/3/3 66/4/4
f 66/4/4 4/3/3 6/5/5 67/6/6
f 67/6/6 6/5/5 8/7/7 68/8/8
f 68/8/8 8/7/7 10/9/9 69/10/10
f 69/10/10 10/9/9 12/11/11 70/12/12
f 70/12/12 12/11/11 14/13/13 71/14/14
f 71/14/14 14/13/13 16/15/15 72/16/16
f 72/16/16 16/15/15 18/17/17 73/18/18
f 73/18/18 18/17/17 20/19/19 74/20/20
f 74/20/20 20/19/19 22/21/21 75/22/22
f 75/22/22 22/21/21 24/23/23 76/24/24
f 76/24/24 24/23/23 26/25/25 77/26/26
f 77/26/26 26/25/25 28/27/27 78/28/28
f 78/28/28 28/27/27 30/29/29 79/30/30
f 79/30/30 30/29/29 32/31/31 80/32/32
f 80/32/32 32/31/31 34/33/33 81/34/34
f 81/34/34 34/33/33 36/35/35 82/36/36
f 82/36/36 36/35/35 38/37/37 83/38/38
f 83/38/38 38/37/37 40/39/39 84/40/40
f 84/40/40 40/39/39 42/41/41 85/42/42
f 85/42/42 42/41/41 44/43/43 86/44/44
f 86/44/44 44/43/43 46/45/45 87/46/46
f 87/46/46 46/45/45 48/47/47 88/48/48
f 88/48/48 48/47/47 50/49/49 89/50/50
f 89/50/50 50/49/49 52/51/51 90/52/52
f 90/52/52 52/51/51 54/53/53 91/54/54
f 91/54/54 54/53/53 56/55/55 92/56/56
f 92/56/56 56/55/55 58/57/57 93/58/58
f 93/58/58 58/57/57 60/59/59 94/60/60
f 94/60/60 60/59/59 62/61/61 95/62/62
f 95/62/62 62/61/61 64/63/63 96/64/64
f 96/64/64 64/63/63 2/65/2 65/66/1
f 4/3/65 2/65/65 64/63/65 62/61/65 60/59/65 58/57/65 56/55/65 54/53/65 52/51/65 50/49/65 48/47/65 46/45/65 44/43/65 42/41/65 40/39/65 38/37/65 36/35/65 34/33/65 32/31/65 30/29/65 28/27/65 26/25/65 24/23/65 22/21/65 20/19/65 18/17/65 16/15/65 14/13/65 12/11/65 10/9/65 8/7/65 6/5/65
f 1/67/66 3/68/66 5/69/66 7/70/66 9/71/66 11/72/66 13/73/66 15/74/66 17/75/66 19/76/66 21/77/66 23/78/66 25/79/66 27/80/66 29/81/66 31/82/66 33/83/66 35/84/66 37/85/66 39/86/66 41/87/66 43/88/66 45/89/66 47/90/66 49/91/66 51/92/66 53/93/66 55/94/66 57/95/66 59/96/66 61/97/66 63/98/66
f 160/99/67 96/64/64 65/66/1 129/100/68
f 159/101/69 95/62/62 96/64/64 160/99/67
f 158/102/70 94/60/60 95/62/62 159/101/69
f 157/103/71 93/58/58 94/60/60 158/102/70
f 156/104/72 92/56/56 93/58/58 157/103/71
f 155/105/73 91/54/54 92/56/56 156/104/72
f 154/106/74 90/52/52 91/54/54 155/105/73
f 153/107/75 89/50/50 90/52/52 154/106/74
f 152/108/76 88/48/48 89/50/50 153/107/75
f 151/109/77 87/46/46 88/48/48 152/108/76
f 150/110/78 86/44/44 87/46/46 151/109/77
f 149/111/79 85/42/42 86/44/44 150/110/78
f 148/112/80 84/40/40 85/42/42 149/111/79
f 147/113/81 83/38/38 84/40/40 148/112/80
f 146/114/82 82/36/36 83/38/38 147/113/81
f 145/115/83 81/34/34 82/36/36 146/114/82
f 144/116/84 80/32/32 81/34/34 145/115/83
f 143/117/85 79/30/30 80/32/32 144/116/84
f 142/118/86 78/28/28 79/30/30 143/117/85
f 141/119/87 77/26/26 78/28/28 142/118/86
f 140/120/88 76/24/24 77/26/26 141/119/87
f 139/121/89 75/22/22 76/24/24 140/120/88
f 138/122/90 74/20/20 75/22/22 139/121/89
f 137/123/91 73/18/18 74/20/20 138/122/90
f 136/124/92 72/16/16 73/18/18 137/123/91
f 135/125/93 71/14/14 72/16/16 136/124/92
f 134/126/94 70/12/12 71/14/14 135/125/93
f 133/127/95 69/10/10 70/12/12 134/126/94
f 132/128/96 68/8/8 69/10/10 133/127/95
f 131/129/97 67/6/6 68/8/8 132/128/96
f 130/130/98 66/4/4 67/6/6 131/129/97
f 129/131/68 65/1/1 66/4/4 130/130/98
f 1/132/99 128/133/100 97/134/101 3/68/102
f 3/68/102 97/134/101 98/135/103 5/69/104
f 5/69/104 98/135/103 99/136/105 7/70/106
f 7/70/106 99/136/105 100/137/107 9/71/108
f 9/71/108 100/137/107 101/138/109 11/72/110
f 11/72/110 101/138/109 102/139/111 13/73/112
f 13/73/112 102/139/111 103/140/113 15/74/114
f 15/74/114 103/140/113 104/141/115 17/75/116
f 17/75/116 104/141/115 105/142/117 19/76/118
f 19/76/118 105/142/117 106/143/119 21/77/120
f 21/77/120 106/143/119 107/144/121 23/78/122
f 23/78/122 107/144/121 108/145/123 25/79/124
f 25/79/124 108/145/123 109/146/125 27/80/126
f 27/80/126 109/146/125 110/147/127 29/81/128
f 29/81/128 110/147/127 111/148/129 31/82/130
f 31/82/130 111/148/129 112/149/131 33/83/132
f 33/83/132 112/149/131 113/150/133 35/84/134
f 35/84/134 113/150/133 114/151/135 37/85/136
f 37/85/136 114/151/135 115/152/137 39/86/138
f 39/86/138 115/152/137 116/153/139 41/87/140
f 41/87/140 116/153/139 117/154/141 43/88/142
f 43/88/142 117/154/141 118/155/143 45/89/144
f 45/89/144 118/155/143 119/156/145 47/90/146
f 47/90/146 119/156/145 120/157/147 49/91/148
f 49/91/148 120/157/147 121/158/149 51/92/150
f 51/92/150 121/158/149 122/159/151 53/93/152
f 53/93/152 122/159/151 123/160/153 55/94/154
f 55/94/154 123/160/153 124/161/155 57/95/156
f 57/95/156 124/161/155 125/162/157 59/96/158
f 59/96/158 125/162/157 126/163/159 61/97/160
f 61/97/160 126/163/159 127/164/161 63/98/162
f 63/98/162 127/164/161 128/165/100 1/67/99
f 128/133/100 129/131/68 130/130/98 97/134/101
f 97/134/101 130/130/98 131/129/97 98/135/103
f 98/135/103 131/129/97 132/128/96 99/136/105
f 99/136/105 132/128/96 133/127/95 100/137/107
f 100/137/107 133/127/95 134/126/94 101/138/109
f 101/138/109 134/126/94 135/125/93 102/139/111
f 102/139/111 135/125/93 136/124/92 103/140/113
f 103/140/113 136/124/92 137/123/91 104/141/115
f 104/141/115 137/123/91 138/122/90 105/142/117
f 105/142/117 138/122/90 139/121/89 106/143/119
f 106/143/119 139/121/89 140/120/88 107/144/121
f 107/144/121 140/120/88 141/119/87 108/145/123
f 108/145/123 141/119/87 142/118/86 109/146/125
f 109/146/125 142/118/86 143/117/85 110/147/127
f 110/147/127 143/117/85 144/116/84 111/148/129
f 111/148/129 144/116/84 145/115/83 112/149/131
f 112/149/131 145/115/83 146/114/82 113/150/133
f 113/150/133 146/114/82 147/113/81 114/151/135
f 114/151/135 147/113/81 148/112/80 115/152/137
f 115/152/137 148/112/80 149/111/79 116/153/139
f 116/153/139 149/111/79 150/110/78 117/154/141
f 117/154/141 150/110/78 151/109/77 118/155/143
f 118/155/143 151/109/77 152/108/76 119/156/145
f 119/156/145 152/108/76 153/107/75 120/157/147
f 120/157/147 153/107/75 154/106/74 121/158/149
f 121/158/149 154/106/74 155/105/73 122/159/151
f 122/159/151 155/105/73 156/104/72 123/160/153
f 123/160/153 156/104/72 157/103/71 124/161/155
f 124/161/155 157/103/71 158/102/70 125/162/157
f 125/162/157 158/102/70 159/101/69 126/163/159
f 126/163/159 159/101/69 160/99/67 127/164/161
f 127/164/161 160/99/67 129/100/68 128/165/100
