# Blender v2.93.0 OBJ File: 'longledge_preapply.blend'
# www.blender.org
mtllib mall_ramp.mtl
o Cube.043_Cube.038
v -16.886602 3.408593 -66.679886
v -16.886602 3.571496 -66.679886
v -16.886602 3.408593 -79.690018
v -16.886602 3.571496 -79.690018
v -16.414309 3.408593 -66.679886
v -16.414309 3.571496 -66.679886
v -16.414309 3.408593 -79.690018
v -16.414309 3.571496 -79.690018
v -17.358896 3.571496 -66.679886
v -17.358896 3.734400 -66.679886
v -17.358896 3.571496 -79.690018
v -17.358896 3.734400 -79.690018
v -16.886602 3.734400 -66.679886
v -16.886602 3.734400 -79.690018
v -17.831188 3.734400 -66.679886
v -17.831188 3.897304 -66.679886
v -17.831188 3.734400 -79.690018
v -17.831188 3.897304 -79.690018
v -17.358896 3.897304 -66.679886
v -17.358896 3.897304 -79.690018
v -18.303482 3.897304 -66.679886
v -18.303482 4.060207 -66.679886
v -18.303482 3.897304 -79.690018
v -18.303482 4.060207 -79.690018
v -17.831188 4.060207 -66.679886
v -17.831188 4.060207 -79.690018
v -18.775776 4.060207 -66.679886
v -18.775776 4.223111 -66.679886
v -18.775776 4.060207 -79.690018
v -18.775776 4.223111 -79.690018
v -18.303482 4.223111 -66.679886
v -18.303482 4.223111 -79.690018
v -19.248070 4.223111 -66.679886
v -19.248070 4.386015 -66.679886
v -19.248070 4.223111 -79.690018
v -19.248070 4.386015 -79.690018
v -18.775776 4.386015 -66.679886
v -18.775776 4.386015 -79.690018
v -19.720362 4.386015 -66.679886
v -19.720362 4.548919 -66.679886
v -19.720362 4.386015 -79.690018
v -19.720362 4.548919 -79.690018
v -19.248070 4.548919 -66.679886
v -19.248070 4.548919 -79.690018
v -20.192656 4.548919 -66.679886
v -20.192656 4.711823 -66.679886
v -20.192656 4.548919 -79.690018
v -19.720362 4.711823 -66.679886
v -20.664949 4.711823 -66.679886
v -20.664949 4.874726 -66.679886
v -20.192656 4.874726 -66.679886
v -21.137241 4.874726 -66.679886
v -21.137241 5.037630 -66.679886
v -20.664949 5.037630 -66.679886
v -21.609535 5.037630 -66.679886
v -21.609535 5.200534 -66.679886
v -21.137241 5.200534 -66.679886
v -20.192656 4.711823 -78.542114
v -20.664949 4.711823 -78.564529
v -20.664949 4.874726 -75.599983
v -20.192656 4.874726 -75.577568
v -21.137241 5.037630 -72.657845
v -21.137241 4.874726 -75.622391
v -20.664949 5.037630 -72.635437
v -20.192656 4.648745 -79.690018
v -19.720362 4.647513 -79.690018
v -19.720362 4.711823 -78.519707
v -21.609535 5.200534 -69.715706
v -21.609535 5.037630 -72.680252
v -21.137241 5.200534 -69.693298
vt 0.375000 0.000000
vt 0.625000 0.000000
vt 0.625000 0.250000
vt 0.375000 0.250000
vt 0.625000 0.500000
vt 0.375000 0.500000
vt 0.625000 0.750000
vt 0.375000 0.750000
vt 0.625000 1.000000
vt 0.375000 1.000000
vt 0.125000 0.500000
vt 0.125000 0.750000
vt 0.875000 0.500000
vt 0.875000 0.750000
vt 0.375000 0.000000
vt 0.625000 0.000000
vt 0.625000 0.250000
vt 0.375000 0.250000
vt 0.625000 0.500000
vt 0.375000 0.500000
vt 0.625000 0.750000
vt 0.375000 0.750000
vt 0.625000 1.000000
vt 0.375000 1.000000
vt 0.125000 0.500000
vt 0.125000 0.750000
vt 0.875000 0.500000
vt 0.875000 0.750000
vt 0.375000 0.000000
vt 0.625000 0.000000
vt 0.625000 0.250000
vt 0.375000 0.250000
vt 0.625000 0.500000
vt 0.375000 0.500000
vt 0.625000 0.750000
vt 0.375000 0.750000
vt 0.625000 1.000000
vt 0.375000 1.000000
vt 0.125000 0.500000
vt 0.125000 0.750000
vt 0.875000 0.500000
vt 0.875000 0.750000
vt 0.375000 0.000000
vt 0.625000 0.000000
vt 0.625000 0.250000
vt 0.375000 0.250000
vt 0.625000 0.500000
vt 0.375000 0.500000
vt 0.625000 0.750000
vt 0.375000 0.750000
vt 0.625000 1.000000
vt 0.375000 1.000000
vt 0.125000 0.500000
vt 0.125000 0.750000
vt 0.875000 0.500000
vt 0.875000 0.750000
vt 0.375000 0.000000
vt 0.625000 0.000000
vt 0.625000 0.250000
vt 0.375000 0.250000
vt 0.625000 0.500000
vt 0.375000 0.500000
vt 0.625000 0.750000
vt 0.375000 0.750000
vt 0.625000 1.000000
vt 0.375000 1.000000
vt 0.125000 0.500000
vt 0.125000 0.750000
vt 0.875000 0.500000
vt 0.875000 0.750000
vt 0.375000 0.000000
vt 0.625000 0.000000
vt 0.625000 0.250000
vt 0.375000 0.250000
vt 0.625000 0.500000
vt 0.375000 0.500000
vt 0.625000 0.750000
vt 0.375000 0.750000
vt 0.625000 1.000000
vt 0.375000 1.000000
vt 0.125000 0.500000
vt 0.125000 0.750000
vt 0.875000 0.500000
vt 0.875000 0.750000
vt 0.375000 0.000000
vt 0.625000 0.000000
vt 0.625000 0.250000
vt 0.375000 0.250000
vt 0.625000 0.500000
vt 0.375000 0.500000
vt 0.625000 0.750000
vt 0.375000 0.750000
vt 0.625000 1.000000
vt 0.375000 1.000000
vt 0.125000 0.500000
vt 0.125000 0.750000
vt 0.875000 0.500000
vt 0.875000 0.750000
vt 0.375000 0.250000
vt 0.375000 0.000000
vt 0.625000 0.000000
vt 0.625000 0.227942
vt 0.528197 0.250000
vt 0.375000 0.500000
vt 0.526307 0.500000
vt 0.625000 0.750000
vt 0.375000 0.750000
vt 0.625000 0.522489
vt 0.625000 1.000000
vt 0.375000 1.000000
vt 0.125000 0.500000
vt 0.125000 0.750000
vt 0.875000 0.522058
vt 0.875000 0.750000
vt 0.375000 0.228373
vt 0.375000 0.000000
vt 0.625000 0.000000
vt 0.625000 0.171407
vt 0.625000 0.579024
vt 0.625000 0.750000
vt 0.375000 0.750000
vt 0.375000 0.522058
vt 0.625000 1.000000
vt 0.375000 1.000000
vt 0.125000 0.750000
vt 0.125000 0.521627
vt 0.875000 0.578593
vt 0.875000 0.750000
vt 0.375000 0.171837
vt 0.375000 0.000000
vt 0.625000 0.000000
vt 0.625000 0.114871
vt 0.625000 0.635559
vt 0.625000 0.750000
vt 0.375000 0.750000
vt 0.375000 0.578593
vt 0.625000 1.000000
vt 0.375000 1.000000
vt 0.125000 0.750000
vt 0.125000 0.578163
vt 0.875000 0.635129
vt 0.875000 0.750000
vt 0.375000 0.115302
vt 0.375000 0.000000
vt 0.625000 0.000000
vt 0.625000 0.058336
vt 0.625000 0.692095
vt 0.625000 0.750000
vt 0.375000 0.750000
vt 0.375000 0.635129
vt 0.625000 1.000000
vt 0.375000 1.000000
vt 0.125000 0.750000
vt 0.125000 0.634698
vt 0.875000 0.691664
vt 0.875000 0.750000
vt 0.334101 0.638154
vt 0.332957 0.634868
vt 0.329107 0.634868
vt 0.330251 0.638154
vt 0.337927 0.627023
vt 0.338370 0.628295
vt 0.342220 0.628295
vt 0.341769 0.626998
vt 0.334519 0.628295
vt 0.335663 0.631581
vt 0.339514 0.631581
vt 0.331813 0.631581
vt 0.336808 0.634868
vn -1.0000 0.0000 0.0000
vn 0.0000 0.0000 -1.0000
vn 1.0000 0.0000 0.0000
vn 0.0000 0.0000 1.0000
vn 0.0000 -1.0000 0.0000
vn 0.0000 1.0000 0.0000
vn 0.0026 0.9985 -0.0549
usemtl None
s off
f 1/1/1 2/2/1 4/3/1 3/4/1
f 3/4/2 4/3/2 8/5/2 7/6/2
f 7/6/3 8/5/3 6/7/3 5/8/3
f 5/8/4 6/7/4 2/9/4 1/10/4
f 3/11/5 7/6/5 5/8/5 1/12/5
f 8/5/6 4/13/6 2/14/6 6/7/6
f 9/15/1 10/16/1 12/17/1 11/18/1
f 11/18/2 12/17/2 14/19/2 4/20/2
f 4/20/3 14/19/3 13/21/3 2/22/3
f 2/22/4 13/21/4 10/23/4 9/24/4
f 11/25/5 4/20/5 2/22/5 9/26/5
f 14/19/6 12/27/6 10/28/6 13/21/6
f 15/29/1 16/30/1 18/31/1 17/32/1
f 17/32/2 18/31/2 20/33/2 12/34/2
f 12/34/3 20/33/3 19/35/3 10/36/3
f 10/36/4 19/35/4 16/37/4 15/38/4
f 17/39/5 12/34/5 10/36/5 15/40/5
f 20/33/6 18/41/6 16/42/6 19/35/6
f 21/43/1 22/44/1 24/45/1 23/46/1
f 23/46/2 24/45/2 26/47/2 18/48/2
f 18/48/3 26/47/3 25/49/3 16/50/3
f 16/50/4 25/49/4 22/51/4 21/52/4
f 23/53/5 18/48/5 16/50/5 21/54/5
f 26/47/6 24/55/6 22/56/6 25/49/6
f 27/57/1 28/58/1 30/59/1 29/60/1
f 29/60/2 30/59/2 32/61/2 24/62/2
f 24/62/3 32/61/3 31/63/3 22/64/3
f 22/64/4 31/63/4 28/65/4 27/66/4
f 29/67/5 24/62/5 22/64/5 27/68/5
f 32/61/6 30/69/6 28/70/6 31/63/6
f 33/71/1 34/72/1 36/73/1 35/74/1
f 35/74/2 36/73/2 38/75/2 30/76/2
f 30/76/3 38/75/3 37/77/3 28/78/3
f 28/78/4 37/77/4 34/79/4 33/80/4
f 35/81/5 30/76/5 28/78/5 33/82/5
f 38/75/6 36/83/6 34/84/6 37/77/6
f 39/85/1 40/86/1 42/87/1 41/88/1
f 41/88/2 42/87/2 44/89/2 36/90/2
f 36/90/3 44/89/3 43/91/3 34/92/3
f 34/92/4 43/91/4 40/93/4 39/94/4
f 41/95/5 36/90/5 34/92/5 39/96/5
f 44/89/6 42/97/6 40/98/6 43/91/6
f 47/99/1 45/100/1 46/101/1 58/102/1 65/103/1
f 42/104/2 47/99/2 65/103/2 66/105/2
f 48/106/3 40/107/3 42/104/3 66/105/3 67/108/3
f 40/107/4 48/106/4 46/109/4 45/110/4
f 47/111/5 42/104/5 40/107/5 45/112/5
f 58/113/6 46/114/6 48/106/6 67/108/6
f 59/115/1 49/116/1 50/117/1 60/118/1
f 61/119/3 51/120/3 46/121/3 58/122/3
f 46/121/4 51/120/4 50/123/4 49/124/4
f 46/121/5 49/125/5 59/126/5 58/122/5
f 60/127/6 50/128/6 51/120/6 61/119/6
f 63/129/1 52/130/1 53/131/1 62/132/1
f 64/133/3 54/134/3 50/135/3 60/136/3
f 50/135/4 54/134/4 53/137/4 52/138/4
f 50/135/5 52/139/5 63/140/5 60/136/5
f 62/141/6 53/142/6 54/134/6 64/133/6
f 69/143/1 55/144/1 56/145/1 68/146/1
f 70/147/3 57/148/3 53/149/3 62/150/3
f 53/149/4 57/148/4 56/151/4 55/152/4
f 53/149/5 55/153/5 69/154/5 62/150/5
f 68/155/6 56/156/6 57/148/6 70/147/6
f 70/157/7 62/158/7 69/159/7 68/160/7
f 65/161/7 58/162/7 67/163/7 66/164/7
f 59/165/7 60/166/7 61/167/7 58/162/7
f 63/168/7 62/158/7 64/169/7 60/166/7
o Cube.045_Cube.056
v -18.414309 2.491592 -79.690018
v -18.414309 4.680386 -79.690018
v -18.414309 2.491592 -80.812134
v -18.414309 4.620492 -80.812134
v -16.414309 2.680386 -79.690018
v -16.414309 4.680386 -79.690018
v -16.414309 2.680386 -80.812134
v -16.414309 4.680386 -80.812134
v -20.192656 2.491592 -80.812134
v -20.192656 2.491592 -79.690018
v -20.192656 4.648745 -79.690018
v -20.192656 4.587083 -80.812134
vt 0.125000 0.500000
vt 0.125000 0.750000
vt 0.125000 0.750000
vt 0.125000 0.500000
vt 0.375000 0.250000
vt 0.625000 0.250000
vt 0.625000 0.500000
vt 0.375000 0.500000
vt 0.625000 0.750000
vt 0.375000 0.750000
vt 0.625000 1.000000
vt 0.375000 1.000000
vt 0.875000 0.500000
vt 0.875000 0.750000
vt 0.375000 0.000000
vt 0.625000 0.000000
vt 0.625000 0.250000
vt 0.375000 0.250000
vt 0.625000 1.000000
vt 0.375000 1.000000
vt 0.875000 0.500000
vt 0.875000 0.750000
vn 0.0000 -1.0000 0.0000
vn 0.0000 0.0000 -1.0000
vn 1.0000 0.0000 0.0000
vn 0.0000 0.0000 1.0000
vn 0.0940 -0.9956 0.0000
vn -0.0150 0.9995 -0.0267
vn -1.0000 0.0000 0.0000
vn -0.0183 0.9984 -0.0541
usemtl None
s off
f 73/170/8 71/171/8 80/172/8 79/173/8
f 73/174/9 74/175/9 78/176/9 77/177/9
f 77/177/10 78/176/10 76/178/10 75/179/10
f 75/179/11 76/178/11 72/180/11 71/181/11
f 73/170/12 77/177/12 75/179/12 71/171/12
f 78/176/13 74/182/13 72/183/13 76/178/13
f 80/184/14 81/185/14 82/186/14 79/187/14
f 74/175/9 73/174/9 79/187/9 82/186/9
f 71/181/11 72/180/11 81/188/11 80/189/11
f 72/183/15 74/182/15 82/190/15 81/191/15
o Cube.046_Cube.057
v -16.886602 3.445346 -80.813202
v -16.886602 3.608250 -80.813202
v -16.886602 3.445346 -92.884132
v -16.886602 3.608250 -92.884132
v -16.414309 3.445346 -80.813202
v -16.414309 3.608250 -80.813202
v -16.414309 3.445346 -92.884132
v -16.414309 3.608250 -92.884132
v -17.358896 3.608250 -80.813202
v -17.358896 3.771153 -80.813202
v -17.358896 3.608250 -92.884132
v -17.358896 3.771153 -92.884132
v -16.886602 3.771153 -80.813202
v -16.886602 3.771153 -92.884132
v -17.831188 3.771153 -80.813202
v -17.831188 3.934057 -80.813202
v -17.831188 3.771153 -92.884132
v -17.358896 3.934057 -80.813202
v -18.303482 3.934057 -80.813202
v -18.303482 4.096961 -80.813202
v -17.831188 4.096961 -80.813202
v -18.775776 4.096961 -80.813202
v -18.775776 4.259865 -80.813202
v -18.303482 4.259865 -80.813202
v -19.248070 4.259865 -80.813202
v -19.248070 4.422768 -80.813202
v -18.775776 4.422768 -80.813202
v -19.720362 4.422768 -80.813202
v -19.720362 4.585672 -80.813202
v -20.192656 4.585672 -80.813202
v -18.775776 4.259865 -86.699699
v -17.831188 3.934057 -92.583969
v -17.358896 3.934057 -92.561554
v -19.248070 4.259865 -86.722107
v -18.303482 4.096961 -89.641830
v -19.248070 4.422768 -83.757561
v -18.303482 3.934057 -92.606377
v -18.775776 4.422768 -83.735153
v -17.831188 4.096961 -89.619423
v -19.720362 4.585672 -80.815430
v -19.720362 4.422768 -83.779968
v -17.831188 3.917563 -92.884132
v -19.248070 4.584563 -80.813202
v -17.358896 3.916332 -92.884132
v -19.673449 4.585672 -80.813202
v -18.775776 4.096961 -89.664246
v -20.192656 4.587026 -80.813202
v -20.192656 4.585672 -80.837837
v -18.303482 4.259865 -86.677284
v -19.720362 4.585794 -80.813202
vt 0.375000 0.000000
vt 0.625000 0.000000
vt 0.625000 0.250000
vt 0.375000 0.250000
vt 0.625000 0.500000
vt 0.375000 0.500000
vt 0.625000 0.750000
vt 0.375000 0.750000
vt 0.625000 1.000000
vt 0.375000 1.000000
vt 0.125000 0.500000
vt 0.125000 0.750000
vt 0.875000 0.500000
vt 0.875000 0.750000
vt 0.375000 0.000000
vt 0.625000 0.000000
vt 0.625000 0.250000
vt 0.375000 0.250000
vt 0.625000 0.500000
vt 0.375000 0.500000
vt 0.625000 0.750000
vt 0.375000 0.750000
vt 0.625000 1.000000
vt 0.375000 1.000000
vt 0.125000 0.500000
vt 0.125000 0.750000
vt 0.875000 0.500000
vt 0.875000 0.750000
vt 0.375000 0.250000
vt 0.375000 0.000000
vt 0.625000 0.000000
vt 0.625000 0.243783
vt 0.599687 0.250000
vt 0.375000 0.500000
vt 0.597798 0.500000
vt 0.625000 0.750000
vt 0.375000 0.750000
vt 0.625000 0.506681
vt 0.625000 1.000000
vt 0.375000 1.000000
vt 0.125000 0.500000
vt 0.125000 0.750000
vt 0.875000 0.506217
vt 0.875000 0.750000
vt 0.375000 0.244247
vt 0.375000 0.000000
vt 0.625000 0.000000
vt 0.625000 0.182849
vt 0.625000 0.567615
vt 0.625000 0.750000
vt 0.375000 0.750000
vt 0.375000 0.506217
vt 0.625000 1.000000
vt 0.375000 1.000000
vt 0.125000 0.750000
vt 0.125000 0.505753
vt 0.875000 0.567151
vt 0.875000 0.750000
vt 0.375000 0.183313
vt 0.375000 0.000000
vt 0.625000 0.000000
vt 0.625000 0.121915
vt 0.625000 0.628549
vt 0.625000 0.750000
vt 0.375000 0.750000
vt 0.375000 0.567151
vt 0.625000 1.000000
vt 0.375000 1.000000
vt 0.125000 0.750000
vt 0.125000 0.566687
vt 0.875000 0.628085
vt 0.875000 0.750000
vt 0.375000 0.122379
vt 0.375000 0.000000
vt 0.625000 0.000000
vt 0.625000 0.060980
vt 0.625000 0.689484
vt 0.625000 0.750000
vt 0.375000 0.750000
vt 0.375000 0.628085
vt 0.625000 1.000000
vt 0.375000 1.000000
vt 0.125000 0.750000
vt 0.125000 0.627621
vt 0.875000 0.689020
vt 0.875000 0.750000
vt 0.375000 0.061445
vt 0.375000 0.000000
vt 0.625000 0.000000
vt 0.625000 0.000046
vt 0.623298 0.750000
vt 0.375000 0.750000
vt 0.375000 0.689020
vt 0.625000 1.000000
vt 0.375000 1.000000
vt 0.625000 0.975167
vt 0.125000 0.750000
vt 0.125000 0.688555
vt 0.875000 0.749954
vt 0.875000 0.750000
vt 0.850167 0.750000
vt 0.375000 0.000510
vt 0.375000 0.000000
vt 0.377078 0.000000
vt 0.375188 0.750000
vt 0.375000 0.750000
vt 0.375000 0.749954
vt 0.377078 1.000000
vt 0.375000 1.000000
vt 0.125000 0.750000
vt 0.125000 0.749490
vt 0.341335 0.625753
vt 0.341334 0.625750
vt 0.337484 0.625750
vt 0.337493 0.625777
vt 0.340190 0.622464
vt 0.341717 0.625750
vt 0.345177 0.625728
vt 0.344041 0.622464
vt 0.348309 0.612605
vt 0.349453 0.615891
vt 0.353304 0.615891
vt 0.352160 0.612605
vt 0.345603 0.615891
vt 0.346747 0.619178
vt 0.350598 0.619178
vt 0.356010 0.612605
vt 0.355886 0.612247
vt 0.352044 0.612272
vt 0.347891 0.622464
vt 0.342896 0.619178
vn -1.0000 0.0000 0.0000
vn 0.0000 0.0000 -1.0000
vn 1.0000 0.0000 0.0000
vn 0.0000 0.0000 1.0000
vn 0.0000 -1.0000 0.0000
vn 0.0000 1.0000 0.0000
vn 0.0026 0.9985 -0.0549
usemtl None
s off
f 83/192/16 84/193/16 86/194/16 85/195/16
f 85/195/17 86/194/17 90/196/17 89/197/17
f 89/197/18 90/196/18 88/198/18 87/199/18
f 87/199/19 88/198/19 84/200/19 83/201/19
f 85/202/20 89/197/20 87/199/20 83/203/20
f 90/196/21 86/204/21 84/205/21 88/198/21
f 91/206/16 92/207/16 94/208/16 93/209/16
f 93/209/17 94/208/17 96/210/17 86/211/17
f 86/211/18 96/210/18 95/212/18 84/213/18
f 84/213/19 95/212/19 92/214/19 91/215/19
f 93/216/20 86/211/20 84/213/20 91/217/20
f 96/210/21 94/218/21 92/219/21 95/212/21
f 99/220/16 97/221/16 98/222/16 114/223/16 124/224/16
f 94/225/17 99/220/17 124/224/17 126/226/17
f 100/227/18 92/228/18 94/225/18 126/226/18 115/229/18
f 92/228/19 100/227/19 98/230/19 97/231/19
f 99/232/20 94/225/20 92/228/20 97/233/20
f 114/234/21 98/235/21 100/227/21 115/229/21
f 119/236/16 101/237/16 102/238/16 117/239/16
f 121/240/18 103/241/18 98/242/18 114/243/18
f 98/242/19 103/241/19 102/244/19 101/245/19
f 98/242/20 101/246/20 119/247/20 114/243/20
f 117/248/21 102/249/21 103/241/21 121/240/21
f 128/250/16 104/251/16 105/252/16 113/253/16
f 131/254/18 106/255/18 102/256/18 117/257/18
f 102/256/19 106/255/19 105/258/19 104/259/19
f 102/256/20 104/260/20 128/261/20 117/257/20
f 113/262/21 105/263/21 106/255/21 131/254/21
f 116/264/16 107/265/16 108/266/16 118/267/16
f 120/268/18 109/269/18 105/270/18 113/271/18
f 105/270/19 109/269/19 108/272/19 107/273/19
f 105/270/20 107/274/20 116/275/20 113/271/20
f 118/276/21 108/277/21 109/269/21 120/268/21
f 123/278/16 110/279/16 111/280/16 122/281/16
f 125/282/18 108/283/18 118/284/18
f 111/285/19 110/286/19 108/283/19 125/282/19 127/287/19
f 108/283/20 110/288/20 123/289/20 118/284/20
f 122/290/21 111/291/21 127/292/21
f 130/293/16 112/294/16 129/295/16
f 132/296/18 111/297/18 122/298/18
f 129/299/19 112/300/19 111/297/19 132/296/19
f 111/297/20 112/301/20 130/302/20 122/298/20
f 132/303/22 122/304/22 130/305/22 129/306/22
f 123/307/22 122/304/22 127/308/22 125/309/22 118/310/22
f 119/311/22 117/312/22 121/313/22 114/314/22
f 128/315/22 113/316/22 131/317/22 117/312/22
f 114/314/22 115/318/22 126/319/22 124/320/22
f 118/310/22 120/321/22 113/316/22 116/322/22
o Cube.048_Cube.059
v -24.670444 2.144229 -88.760284
v -24.670444 4.144229 -88.760284
v -24.670444 2.144229 -97.792862
v -24.670444 4.144229 -97.792862
v -16.414309 2.144229 -88.760284
v -16.414309 4.144229 -88.760284
v -16.414309 2.144229 -97.792862
v -16.414309 4.144229 -97.792862
v -37.406872 2.144229 -97.792862
v -37.406872 2.144229 -88.760284
v -37.406872 4.144229 -88.760284
v -37.406872 4.144229 -97.792862
vt 0.875000 0.750000
vt 0.875000 0.500000
vt 0.875000 0.500000
vt 0.875000 0.750000
vt 0.375000 0.250000
vt 0.625000 0.250000
vt 0.625000 0.500000
vt 0.375000 0.500000
vt 0.625000 0.750000
vt 0.375000 0.750000
vt 0.625000 1.000000
vt 0.375000 1.000000
vt 0.125000 0.500000
vt 0.125000 0.750000
vt 0.375000 0.000000
vt 0.625000 0.000000
vt 0.625000 0.250000
vt 0.375000 0.250000
vt 0.125000 0.750000
vt 0.125000 0.500000
vt 0.625000 1.000000
vt 0.375000 1.000000
vn 0.0000 1.0000 0.0000
vn 0.0000 0.0000 -1.0000
vn 1.0000 0.0000 0.0000
vn 0.0000 0.0000 1.0000
vn 0.0000 -1.0000 0.0000
vn -1.0000 0.0000 0.0000
usemtl None
s off
f 134/323/23 136/324/23 144/325/23 143/326/23
f 135/327/24 136/328/24 140/329/24 139/330/24
f 139/330/25 140/329/25 138/331/25 137/332/25
f 137/332/26 138/331/26 134/333/26 133/334/26
f 135/335/27 139/330/27 137/332/27 133/336/27
f 140/329/23 136/324/23 134/323/23 138/331/23
f 142/337/28 143/338/28 144/339/28 141/340/28
f 135/335/27 133/336/27 142/341/27 141/342/27
f 136/328/24 135/327/24 141/340/24 144/339/24
f 133/334/26 134/333/26 143/343/26 142/344/26
o Cube.049_Cube.060
v -24.670444 3.200534 -66.679886
v -24.670444 5.200534 -66.679886
v -24.670444 2.144229 -97.109749
v -21.609535 3.200534 -66.679886
v -21.609535 5.200534 -66.679886
v -21.609535 4.037630 -72.680252
v -21.137241 5.037630 -72.657845
v -21.137241 4.037630 -72.657845
v -21.137241 3.874726 -75.622391
v -20.664949 3.874726 -75.599983
v -20.664949 3.711823 -78.564529
v -20.192656 3.711823 -78.542114
v -20.192656 3.680386 -80.812134
v -19.673449 3.585672 -80.813202
v -19.720362 3.422768 -83.779968
v -19.248070 3.422768 -83.757561
v -19.248070 3.259865 -86.722107
v -18.775776 3.259865 -86.699699
v -18.775776 3.096961 -89.664246
v -18.303482 3.096961 -89.641830
v -18.303482 2.934057 -92.606377
v -17.358896 2.934057 -92.561554
v -17.358896 2.916332 -92.884132
v -16.414309 2.608250 -92.884132
v -16.414309 2.761785 -97.792862
v -37.406872 2.144229 -97.109749
v -37.406872 3.200534 -66.679886
v -37.406872 5.200534 -66.679886
v -37.406872 3.736402 -97.109749
v -37.406872 4.843750 -76.958076
v -16.414309 3.644129 -97.792862
v -16.414309 3.913868 -92.884132
v -24.670444 3.703194 -97.109749
v -24.670444 4.900709 -75.317207
v -17.358896 3.916331 -92.884132
v -17.358896 3.934056 -92.561554
v -18.303482 3.934056 -92.606377
v -18.303482 4.096960 -89.641830
v -18.775776 4.096960 -89.664246
v -18.775776 4.259863 -86.699699
v -19.248070 4.422767 -83.757561
v -19.248070 4.259863 -86.722107
v -19.673449 4.585671 -80.813202
v -19.720362 4.422767 -83.779968
v -20.192656 4.587083 -80.812134
v -20.192656 4.711823 -78.542114
v -20.664949 4.711823 -78.564529
v -20.664949 4.874726 -75.599983
v -21.137241 4.874726 -75.622391
v -21.609535 5.037630 -72.680252
v -21.609535 5.200534 -69.715691
vt 0.625000 1.000000
vt 0.625000 0.787117
vt 0.625000 0.746675
vt 0.625000 1.000000
vt 0.375000 0.750000
vt 0.625000 0.750000
vt 0.375000 1.000000
vt 0.375000 0.750000
vt 0.589979 0.750000
vt 0.625000 0.750000
vt 0.375000 0.250000
vt 0.569871 0.250000
vt 0.485293 0.750000
vt 0.375000 0.750000
vt 0.375000 0.000000
vt 0.625000 0.000000
vt 0.625000 0.084442
vt 0.574022 0.250000
vt 0.375000 0.250000
vt 0.000000 0.000000
vt 0.000000 0.000000
vt 0.000000 0.000000
vt 0.000000 0.000000
vt 0.375000 1.000000
vt 0.500000 0.750000
vt 0.625000 0.750000
vt 0.375000 0.750000
vt 0.375000 0.750000
vt 0.500000 0.750000
vt 0.500000 0.750000
vt 0.375000 0.750000
vt 0.375000 0.750000
vt 0.500000 0.750000
vt 0.500000 0.750000
vt 0.375000 0.750000
vt 0.375000 0.750000
vt 0.500000 0.750000
vt 0.375000 0.750000
vt 0.500000 0.750000
vt 0.500000 0.750000
vt 0.375000 0.750000
vt 0.375000 0.750000
vt 0.538202 0.750000
vt 0.375000 0.750000
vt 0.500000 0.750000
vt 0.488337 0.750000
vt 0.375000 0.750000
vt 0.375000 0.750000
vt 0.500000 0.750000
vt 0.375000 0.750000
vt 0.500000 0.750000
vt 0.500000 0.750000
vt 0.375000 0.750000
vt 0.375000 0.750000
vt 0.500000 0.750000
vt 0.375000 0.750000
vt 0.500000 0.750000
vt 0.375000 0.750000
vt 0.191172 0.608618
vt 0.198950 0.630957
vt 0.303189 0.632106
vt 0.330251 0.638154
vt 0.329107 0.634868
vt 0.332957 0.634868
vt 0.331813 0.631581
vt 0.335663 0.631581
vt 0.334519 0.628295
vt 0.338370 0.628295
vt 0.337494 0.625779
vt 0.341717 0.625750
vt 0.340190 0.622464
vt 0.344041 0.622464
vt 0.342896 0.619178
vt 0.346747 0.619178
vt 0.345603 0.615891
vt 0.349453 0.615891
vt 0.348309 0.612605
vt 0.356010 0.612605
vt 0.355886 0.612247
vt 0.363569 0.612198
vt 0.361675 0.606756
vt 0.294778 0.607948
vn 0.0000 0.9994 -0.0347
vn 0.0000 0.0000 1.0000
vn 1.0000 0.0000 0.0000
vn -0.0825 0.0000 -0.9966
vn -0.0255 0.9993 -0.0257
vn -1.0000 0.0000 0.0000
vn 0.0000 -0.9994 0.0347
vn -0.0474 0.0000 0.9989
vn 0.0021 0.0000 1.0000
vn 0.9999 0.0000 -0.0158
vn -0.0000 0.0000 -1.0000
vn 0.0026 0.9985 -0.0549
usemtl None
s off
f 146/345/29 178/346/29 174/347/29 172/348/29
f 148/349/30 149/350/30 146/345/30 145/351/30
f 149/350/31 148/349/31 150/352/31 194/353/31 195/354/31
f 147/355/32 177/356/32 175/357/32 169/358/32
f 146/345/33 149/350/33 195/354/33 178/346/33
f 171/359/34 172/360/34 174/361/34 173/362/34 170/363/34
f 147/364/35 145/365/35 171/366/35 170/367/35
f 145/351/30 146/345/30 172/348/30 171/368/30
f 193/369/31 151/370/31 152/371/31 153/372/31
f 183/373/31 184/374/31 162/375/31 163/376/31
f 179/377/31 180/378/31 166/379/31 167/380/31
f 151/370/36 194/353/36 150/352/36 152/371/36
f 192/381/36 193/369/36 153/372/36 154/382/36
f 185/383/36 188/384/36 159/385/36 160/386/36
f 176/387/30 179/377/30 167/380/30 168/388/30
f 187/389/37 189/390/37 157/391/37 158/392/37
f 189/390/31 190/393/31 156/394/31 157/391/31
f 181/395/31 182/396/31 164/397/31 165/398/31
f 184/374/36 186/399/36 161/400/36 162/375/36
f 186/399/31 185/383/31 160/386/31 161/400/31
f 182/396/36 183/373/36 163/376/36 164/397/36
f 188/384/38 187/389/38 158/392/38 159/385/38
f 175/357/31 176/387/31 168/388/31 169/358/31
f 190/393/36 191/401/36 155/402/36 156/394/36
f 191/401/31 192/381/31 154/382/31 155/402/31
f 173/362/39 177/356/39 147/355/39 170/363/39
f 173/403/40 174/404/40 178/405/40 195/406/40 194/407/40 151/408/40 193/409/40 192/410/40 191/411/40 190/412/40 189/413/40 187/414/40 188/415/40 185/416/40 186/417/40 184/418/40 183/419/40 182/420/40 181/421/40 180/422/40 179/423/40 176/424/40 175/425/40 177/426/40
f 180/378/36 181/395/36 165/398/36 166/379/36
