# Blender v2.93.0 OBJ File: 'longledge_preapply.blend'
# www.blender.org
mtllib middleramp_manhole.mtl
o Cube.056_Cube.067
v -10.293005 0.140764 -1.224746
v -10.293005 0.149503 -1.216006
v -10.301744 0.149503 -1.224746
v -10.293005 0.143324 -1.218566
v -10.298051 0.144458 -1.219700
v -10.299185 0.149503 -1.218566
v -10.299185 0.143324 -1.224746
v -10.293005 0.149503 -1.216006
v -10.293005 0.158243 -1.224746
v -10.301744 0.149503 -1.224746
v -10.293005 0.155683 -1.218566
v -10.298051 0.154549 -1.219700
v -10.299185 0.155683 -1.224746
v -10.299185 0.149503 -1.218566
v -10.293005 0.140764 -2.207280
v -10.301744 0.149503 -2.207280
v -10.293005 0.149503 -2.216019
v -10.299185 0.143324 -2.207280
v -10.298051 0.144458 -2.212326
v -10.299185 0.149503 -2.213459
v -10.293005 0.143324 -2.213459
v -10.293005 0.158243 -2.207280
v -10.293005 0.149503 -2.216019
v -10.301744 0.149503 -2.207280
v -10.293005 0.155683 -2.213459
v -10.298051 0.154549 -2.212326
v -10.299185 0.149503 -2.213459
v -10.299185 0.155683 -2.207280
v -9.310471 0.140764 -1.224746
v -9.301731 0.149503 -1.224746
v -9.310471 0.149503 -1.216006
v -9.304291 0.143324 -1.224746
v -9.305425 0.144458 -1.219700
v -9.304291 0.149503 -1.218566
v -9.310471 0.143324 -1.218566
v -9.310471 0.158243 -1.224746
v -9.310471 0.149503 -1.216006
v -9.301731 0.149503 -1.224746
v -9.310471 0.155683 -1.218566
v -9.305425 0.154549 -1.219700
v -9.304291 0.149503 -1.218566
v -9.304291 0.155683 -1.224746
v -9.310471 0.140764 -2.207280
v -9.310471 0.149503 -2.216019
v -9.301731 0.149503 -2.207280
v -9.310471 0.143324 -2.213459
v -9.305425 0.144458 -2.212326
v -9.304291 0.149503 -2.213459
v -9.304291 0.143324 -2.207280
v -9.310471 0.158243 -2.207280
v -9.301731 0.149503 -2.207280
v -9.310471 0.149503 -2.216019
v -9.304291 0.155683 -2.207280
v -9.305425 0.154549 -2.212326
v -9.304291 0.149503 -2.213459
v -9.310471 0.155683 -2.213459
vt 0.500000 0.752185
vt 0.500000 0.752185
vt 0.500000 0.997815
vt 0.500000 0.997815
vt 0.500000 0.502185
vt 0.500000 0.502185
vt 0.500000 0.747815
vt 0.500000 0.747815
vt 0.627185 0.502185
vt 0.872815 0.502185
vt 0.872815 0.747815
vt 0.627185 0.747815
vt 0.500000 0.002185
vt 0.500000 0.002185
vt 0.500000 0.247815
vt 0.500000 0.247815
vt 0.500000 0.252185
vt 0.500000 0.252185
vt 0.500000 0.497815
vt 0.500000 0.497815
vt 0.127185 0.747815
vt 0.127185 0.750000
vt 0.125923 0.750000
vt 0.125000 0.747815
vt 0.500000 1.000000
vt 0.427831 1.000000
vt 0.375000 0.997815
vt 0.375000 0.002185
vt 0.375000 0.000923
vt 0.500000 0.000000
vt 0.625000 0.997815
vt 0.625000 0.999077
vt 0.500000 1.000000
vt 0.875000 0.747815
vt 0.875000 0.749077
vt 0.872815 0.750000
vt 0.500000 0.000000
vt 0.572169 0.000000
vt 0.625000 0.002185
vt 0.127185 0.502185
vt 0.125000 0.502185
vt 0.125000 0.500923
vt 0.127185 0.500000
vt 0.500000 0.250000
vt 0.427831 0.250000
vt 0.375000 0.247815
vt 0.375000 0.252185
vt 0.375000 0.250923
vt 0.872815 0.500000
vt 0.874077 0.500000
vt 0.875000 0.502185
vt 0.500000 0.250000
vt 0.572169 0.250000
vt 0.625000 0.252185
vt 0.625000 0.247815
vt 0.625000 0.249077
vt 0.372815 0.747815
vt 0.375000 0.747815
vt 0.392610 0.750000
vt 0.372815 0.750000
vt 0.500000 0.750000
vt 0.375000 0.752185
vt 0.627185 0.750000
vt 0.607697 0.749692
vt 0.625000 0.747815
vt 0.500000 0.750000
vt 0.625000 0.752185
vt 0.372815 0.502185
vt 0.372815 0.500000
vt 0.392303 0.500308
vt 0.375000 0.502185
vt 0.500000 0.500000
vt 0.375000 0.497815
vt 0.625000 0.502185
vt 0.607390 0.500000
vt 0.627185 0.500000
vt 0.500000 0.500000
vt 0.625000 0.497815
vn 0.0000 0.0000 1.0000
vn 0.0000 1.0000 0.0000
vn -0.3250 -0.8881 0.3250
vn -0.3251 -0.3251 0.8881
vn -0.8881 -0.3250 0.3251
vn -0.3251 0.3251 0.8881
vn -0.3250 0.8881 0.3250
vn -0.8881 0.3250 0.3251
vn -0.3250 -0.8881 -0.3250
vn -0.8881 -0.3250 -0.3251
vn -0.3250 -0.3251 -0.8881
vn -0.3250 0.8881 -0.3250
vn -0.3250 0.3251 -0.8881
vn -0.8881 0.3250 -0.3251
vn 0.3250 -0.8881 0.3250
vn 0.8881 -0.3250 0.3251
vn 0.3251 -0.3250 0.8881
vn 0.3250 0.8881 0.3250
vn 0.3251 0.3250 0.8881
vn 0.8881 0.3251 0.3251
vn 0.3250 -0.8881 -0.3250
vn 0.3250 -0.3251 -0.8881
vn 0.8881 -0.3250 -0.3251
vn 0.3250 0.8881 -0.3250
vn 0.8881 0.3250 -0.3251
vn 0.3250 0.3251 -0.8881
vn -0.3827 -0.9239 0.0000
vn -0.9239 -0.3827 0.0000
vn -0.3827 0.9239 0.0000
vn -0.9239 0.3827 0.0000
vn 0.0000 -0.9239 -0.3827
vn 0.0000 -0.3827 -0.9239
vn 0.0000 0.9239 -0.3827
vn 0.0000 0.3827 -0.9239
vn 0.3827 -0.9239 0.0000
vn 0.9239 -0.3827 0.0000
vn 0.3827 0.9239 0.0000
vn 0.9239 0.3827 0.0000
vn 0.0000 -0.9239 0.3827
vn 0.0000 -0.3827 0.9239
vn 0.0000 0.9239 0.3827
vn 0.0000 0.3827 0.9239
vn 0.0000 -1.0000 0.0000
usemtl None
s off
f 31/1/1 37/2/1 8/3/1 2/4/1
f 45/5/1 51/6/1 38/7/1 30/8/1
f 50/9/2 22/10/2 9/11/2 36/12/2
f 3/13/1 10/14/1 24/15/1 16/16/1
f 17/17/1 23/18/1 52/19/1 44/20/1
f 1/21/3 4/22/3 5/23/3 7/24/3
f 2/4/4 6/25/4 5/26/4 4/27/4
f 3/13/5 7/28/5 5/29/5 6/30/5
f 8/3/6 11/31/6 12/32/6 14/33/6
f 9/11/7 13/34/7 12/35/7 11/36/7
f 10/14/8 14/37/8 12/38/8 13/39/8
f 15/40/9 18/41/9 19/42/9 21/43/9
f 16/16/10 20/44/10 19/45/10 18/46/10
f 17/17/11 21/47/11 19/48/11 20/44/11
f 22/10/12 25/49/12 26/50/12 28/51/12
f 23/18/13 27/52/13 26/53/13 25/54/13
f 24/15/14 28/55/14 26/56/14 27/52/14
f 29/57/15 32/58/15 33/59/15 35/60/15
f 30/8/16 34/61/16 33/59/16 32/58/16
f 31/1/17 35/62/17 33/59/17 34/61/17
f 36/12/18 39/63/18 40/64/18 42/65/18
f 37/2/19 41/66/19 40/64/19 39/67/19
f 38/7/20 42/65/20 40/64/20 41/66/20
f 43/68/21 46/69/21 47/70/21 49/71/21
f 44/20/22 48/72/22 47/70/22 46/73/22
f 45/5/23 49/71/23 47/70/23 48/72/23
f 50/9/24 53/74/24 54/75/24 56/76/24
f 51/6/25 55/77/25 54/75/25 53/74/25
f 52/19/26 56/78/26 54/75/26 55/77/26
f 15/40/27 1/21/27 7/24/27 18/41/27
f 18/46/28 7/28/28 3/13/28 16/16/28
f 2/4/1 8/3/1 14/33/1 6/25/1
f 6/30/1 14/37/1 10/14/1 3/13/1
f 9/11/29 22/10/29 28/51/29 13/34/29
f 13/39/30 28/55/30 24/15/30 10/14/30
f 23/18/1 17/17/1 20/44/1 27/52/1
f 27/52/1 20/44/1 16/16/1 24/15/1
f 43/68/31 15/40/31 21/43/31 46/69/31
f 46/73/32 21/47/32 17/17/32 44/20/32
f 22/10/33 50/9/33 56/76/33 25/49/33
f 25/54/34 56/78/34 52/19/34 23/18/34
f 51/6/1 45/5/1 48/72/1 55/77/1
f 55/77/1 48/72/1 44/20/1 52/19/1
f 29/57/35 43/68/35 49/71/35 32/58/35
f 32/58/36 49/71/36 45/5/36 30/8/36
f 50/9/37 36/12/37 42/65/37 53/74/37
f 53/74/38 42/65/38 38/7/38 51/6/38
f 37/2/1 31/1/1 34/61/1 41/66/1
f 41/66/1 34/61/1 30/8/1 38/7/1
f 1/21/39 29/57/39 35/60/39 4/22/39
f 4/27/40 35/62/40 31/1/40 2/4/40
f 36/12/41 9/11/41 11/36/41 39/63/41
f 39/67/42 11/31/42 8/3/42 37/2/42
f 15/40/43 43/68/43 29/57/43 1/21/43
