# Blender v3.0.0 OBJ File: 'longledge_preapply.blend'
# www.blender.org
mtllib middleramp_bump.mtl
o Cube.024_Cube.023
v -9.284408 -1.218806 12.276752
v -9.284408 -1.207314 12.289214
v -9.296910 -1.206259 12.276711
v -9.284408 -0.875103 12.289214
v -9.284408 -0.861590 12.276752
v -9.296910 -0.874130 12.276711
v -9.284408 -0.179618 -0.539544
v -9.296910 -0.167078 -0.539504
v -9.284408 -0.166105 -0.552006
v -9.284408 0.177598 -0.539544
v -9.284408 0.166105 -0.552006
v -9.296910 0.165051 -0.539504
v -8.952197 -1.218806 12.276752
v -8.939694 -1.206259 12.276711
v -8.952197 -1.207314 12.289214
v -8.952197 -0.861590 12.276752
v -8.952197 -0.875103 12.289214
v -8.939694 -0.874130 12.276711
v -8.952197 -0.179618 -0.539544
v -8.952197 -0.166105 -0.552006
v -8.939694 -0.167078 -0.539504
v -8.952197 0.177598 -0.539544
v -8.939694 0.165051 -0.539504
v -8.952197 0.166105 -0.552006
vt 0.383750 0.758750
vt 0.616250 0.758750
vt 0.616250 0.991250
vt 0.383750 0.991250
vt 0.383779 0.500243
vt 0.616221 0.500243
vt 0.616221 0.749757
vt 0.383779 0.749757
vt 0.633750 0.500243
vt 0.866250 0.500243
vt 0.866250 0.749757
vt 0.633750 0.749757
vt 0.383779 0.000243
vt 0.616221 0.000243
vt 0.616221 0.249757
vt 0.383779 0.249757
vt 0.383750 0.258750
vt 0.616250 0.258750
vt 0.616250 0.491250
vt 0.383750 0.491250
vt 0.375707 0.991250
vt 0.383750 1.000000
vt 0.384488 1.000000
vt 0.625000 0.991250
vt 0.616931 1.000000
vt 0.133750 0.500243
vt 0.125000 0.500224
vt 0.133750 0.500000
vt 0.625000 0.249757
vt 0.616250 0.250000
vt 0.615512 0.250000
vt 0.375707 0.758750
vt 0.384488 0.750000
vt 0.383750 0.750000
vt 0.625707 0.758750
vt 0.616250 0.750000
vt 0.616931 0.750000
vt 0.366250 0.500243
vt 0.366250 0.500000
vt 0.375000 0.500224
vt 0.625000 0.500243
vt 0.615512 0.500000
vt 0.616250 0.500000
vt 0.133750 0.749757
vt 0.125000 0.749737
vt 0.625000 0.000243
vt 0.633750 0.500000
vt 0.866250 0.500000
vt 0.366250 0.749757
vt 0.375000 0.991250
vt 0.375000 0.758750
vt 0.625000 0.758750
vn 0.0000 0.0000 1.0000
vn 1.0000 0.0000 0.0000
vn 0.0000 0.9967 0.0808
vn -1.0000 0.0000 0.0000
vn 0.0000 0.0000 -1.0000
vn -0.5949 -0.5909 0.5449
vn -0.4578 0.4344 0.7757
vn -0.4578 0.7381 0.4956
vn -0.7441 0.4530 0.4911
vn -0.4578 -0.7381 -0.4956
vn -0.7440 -0.4530 -0.4912
vn -0.4578 -0.4344 -0.7757
vn -0.5948 0.5909 -0.5450
vn 0.5949 -0.5909 0.5449
vn 0.4579 0.7380 0.4956
vn 0.4579 0.4344 0.7757
vn 0.7441 0.4529 0.4911
vn 0.4578 -0.7381 -0.4956
vn 0.4578 -0.4344 -0.7757
vn 0.7440 -0.4529 -0.4912
vn 0.5948 0.5909 -0.5450
vn -0.7071 -0.7048 -0.0571
vn -0.7071 0.0000 0.7071
vn -0.7071 0.7048 0.0571
vn -0.7071 0.0000 -0.7071
vn 0.0000 0.7351 -0.6779
vn 0.7071 0.0000 -0.7071
vn 0.7071 -0.7048 -0.0571
vn 0.7071 0.7048 0.0571
vn 0.7071 0.0000 0.7071
vn 0.0000 -0.7351 0.6779
vn 0.0000 -0.9967 -0.0808
usemtl ConcreteSlab
s 1
f 15/1/1 17/2/1 4/3/1 2/4/1
f 21/5/2 23/6/2 18/7/2 14/8/2
f 22/9/3 10/10/3 5/11/3 16/12/3
f 3/13/4 6/14/4 12/15/4 8/16/4
f 9/17/5 11/18/5 24/19/5 20/20/5
f 1/21/6 2/22/6 3/23/6
f 4/3/7 5/24/8 6/25/9
f 7/26/10 8/27/11 9/28/12
f 10/29/13 11/30/13 12/31/13
f 13/32/14 14/33/14 15/34/14
f 16/35/15 17/36/16 18/37/17
f 19/38/18 20/39/19 21/40/20
f 22/41/21 23/42/21 24/43/21
f 7/26/10 1/44/22 3/45/22 8/27/11
f 2/4/23 4/3/7 6/25/9 3/23/23
f 5/46/8 10/29/24 12/15/24 6/14/9
f 11/18/25 9/17/12 8/16/11 12/15/25
f 19/38/18 7/26/10 9/28/12 20/39/19
f 10/10/26 22/9/26 24/47/26 11/48/26
f 23/6/27 21/5/20 20/20/19 24/19/27
f 13/49/28 19/38/18 21/5/20 14/8/28
f 22/9/29 16/12/15 18/7/17 23/6/29
f 17/2/16 15/1/30 14/8/30 18/7/17
f 1/50/31 13/51/31 15/1/31 2/4/31
f 16/52/15 5/24/8 4/3/7 17/2/16
f 7/26/32 19/38/32 13/49/32 1/44/32
