# Blender v2.93.0 OBJ File: 'longledge_preapply.blend'
# www.blender.org
mtllib rail_kicker.mtl
o Cube.025_Cube.032
v -10.035670 0.064318 -1.006152
v -10.033730 0.072061 -0.998656
v -10.043167 0.072061 -1.004211
v -10.034298 0.066586 -1.000852
v -10.038877 0.067591 -1.000704
v -10.039598 0.072061 -0.999479
v -10.040972 0.066586 -1.004779
v -10.043167 0.317197 -1.004211
v -10.033730 0.319668 -0.998656
v -10.035599 0.325320 -1.005874
v -10.039614 0.318866 -0.999537
v -10.038862 0.323175 -1.000645
v -10.034262 0.324610 -1.000712
v -10.040936 0.322862 -1.004640
v -10.348639 0.072061 -2.183577
v -10.377907 0.065093 -2.327455
v -10.377897 0.064318 -2.327417
v -10.364865 0.070173 -2.255269
v -10.373514 0.066449 -2.292667
v -10.378704 0.064545 -2.330533
v -10.364820 0.066586 -2.255095
v -9.212597 0.064318 -1.219340
v -9.205101 0.072061 -1.221282
v -9.210655 0.072061 -1.211844
v -9.207296 0.066586 -1.220713
v -9.207149 0.067591 -1.216133
v -9.205924 0.072061 -1.215412
v -9.211225 0.066586 -1.214040
v -9.205101 0.317197 -1.221282
v -9.212525 0.325320 -1.219061
v -9.210655 0.319668 -1.211844
v -9.207260 0.322862 -1.220574
v -9.207133 0.323175 -1.216074
v -9.211188 0.324610 -1.213900
v -9.205938 0.318866 -1.215470
v -9.554833 0.065093 -2.540642
v -9.510573 0.072061 -2.400647
v -9.554824 0.064318 -2.540605
v -9.531191 0.070173 -2.471202
v -9.541785 0.066449 -2.508097
v -9.531146 0.066586 -2.471028
v -9.555631 0.064545 -2.543721
v -10.128275 0.221955 -1.332796
v -10.121298 0.229418 -1.336740
v -10.126446 0.227232 -1.334780
v -10.348623 0.072068 -2.183514
v -10.341329 0.079769 -2.186234
v -10.346570 0.077514 -2.184633
v -10.145226 0.204458 -1.398241
v -10.138186 0.211986 -1.401943
v -10.143353 0.209781 -1.400054
v -10.165737 0.185873 -1.477431
v -10.158649 0.193443 -1.480948
v -10.163831 0.191226 -1.479114
v -10.189191 0.166753 -1.567979
v -10.182066 0.174354 -1.571355
v -10.187258 0.172127 -1.569562
v -10.214880 0.147673 -1.667160
v -10.207725 0.155297 -1.670416
v -10.212925 0.153064 -1.668658
v -10.242028 0.129209 -1.771973
v -10.234845 0.136851 -1.775122
v -10.240054 0.134613 -1.773396
v -10.269814 0.111919 -1.879246
v -10.262603 0.119578 -1.882291
v -10.267820 0.117335 -1.880595
v -10.297394 0.096328 -1.985727
v -10.290156 0.104003 -1.988667
v -10.295381 0.101755 -1.987002
v -10.323934 0.082907 -2.088192
v -10.316667 0.090597 -2.091018
v -10.321899 0.088345 -2.089386
v -9.510557 0.072068 -2.400585
v -9.518255 0.079769 -2.399421
v -9.512896 0.077514 -2.400567
v -9.290210 0.221955 -1.549867
v -9.298223 0.229418 -1.549927
v -9.292771 0.227232 -1.550714
v -9.485868 0.082907 -2.305264
v -9.493593 0.090597 -2.304206
v -9.488225 0.088345 -2.305320
v -9.459328 0.096328 -2.202798
v -9.467083 0.104003 -2.201855
v -9.461706 0.101755 -2.202936
v -9.431747 0.111919 -2.096317
v -9.439529 0.119578 -2.095479
v -9.434145 0.117335 -2.096529
v -9.403962 0.129209 -1.989044
v -9.411772 0.136851 -1.988310
v -9.406379 0.134613 -1.989329
v -9.376814 0.147673 -1.884231
v -9.384651 0.155297 -1.883604
v -9.379251 0.153064 -1.884592
v -9.351125 0.166753 -1.785050
v -9.358993 0.174354 -1.784543
v -9.353583 0.172127 -1.785496
v -9.327672 0.185873 -1.694501
v -9.335576 0.193443 -1.694136
v -9.330156 0.191226 -1.695047
v -9.307160 0.204458 -1.615312
v -9.315112 0.211986 -1.615131
v -9.309678 0.209781 -1.615988
vt 0.627236 0.501395
vt 0.872764 0.501395
vt 0.872764 0.527816
vt 0.627236 0.527816
vt 0.127236 0.501402
vt 0.372764 0.501402
vt 0.372764 0.748598
vt 0.127236 0.748598
vt 0.627236 0.686748
vt 0.872764 0.686748
vt 0.872764 0.748650
vt 0.627236 0.748650
vt 0.627743 0.674983
vt 0.872768 0.675195
vt 0.382358 0.752236
vt 0.617642 0.752236
vt 0.617642 0.997764
vt 0.382358 0.997764
vt 0.872769 0.545995
vt 0.627824 0.545875
vt 0.872783 0.662333
vt 0.629314 0.661491
vt 0.632061 0.646681
vt 0.872807 0.648552
vt 0.635877 0.631003
vt 0.872842 0.634270
vt 0.636249 0.608502
vt 0.872845 0.610346
vt 0.632563 0.586840
vt 0.872812 0.587896
vt 0.629602 0.565751
vt 0.872785 0.566226
vt 0.610945 0.527955
vt 0.610945 0.527966
vt 0.611813 0.545979
vt 0.614110 0.565755
vt 0.617559 0.586746
vt 0.621585 0.608345
vt 0.622022 0.630462
vt 0.619215 0.646674
vt 0.617102 0.661694
vt 0.615994 0.675318
vt 0.615914 0.687144
vt 0.617209 0.748597
vt 0.383944 0.748601
vt 0.127236 0.750000
vt 0.125945 0.750000
vt 0.125000 0.748598
vt 0.382358 1.000000
vt 0.378110 1.000000
vt 0.375000 0.997764
vt 0.382551 0.001402
vt 0.375000 0.001402
vt 0.375000 0.000593
vt 0.382358 0.000000
vt 0.615805 0.001402
vt 0.616879 0.000000
vt 0.620974 0.000000
vt 0.623510 0.001490
vt 0.625000 0.997764
vt 0.625000 0.999055
vt 0.616879 1.000000
vt 0.875000 0.748510
vt 0.875000 0.749261
vt 0.872764 0.750000
vt 0.388917 0.222050
vt 0.389603 0.235397
vt 0.382655 0.242345
vt 0.375000 0.235324
vt 0.872764 0.500000
vt 0.874055 0.500000
vt 0.875000 0.514603
vt 0.125000 0.514676
vt 0.125000 0.507694
vt 0.127236 0.500000
vt 0.375000 0.748598
vt 0.375000 0.749407
vt 0.372764 0.750000
vt 0.382358 0.750000
vt 0.378110 0.750000
vt 0.376402 0.748598
vt 0.375000 0.752236
vt 0.375000 0.750945
vt 0.625000 0.748510
vt 0.623973 0.749754
vt 0.616879 0.750000
vt 0.627236 0.750000
vt 0.625000 0.752236
vt 0.625000 0.514603
vt 0.625000 0.507655
vt 0.627236 0.500000
vt 0.610324 0.514676
vt 0.617306 0.507694
vt 0.372764 0.500000
vt 0.374055 0.500000
vt 0.375000 0.514676
vt 0.541920 0.075122
vt 0.553086 0.062877
vt 0.561748 0.063252
vt 0.551085 0.075451
vt 0.875000 0.675197
vt 0.875000 0.686748
vt 0.625512 0.674981
vt 0.625000 0.686748
vt 0.531167 0.089937
vt 0.541057 0.090232
vt 0.875000 0.662341
vt 0.627096 0.661483
vt 0.521423 0.106878
vt 0.532459 0.107146
vt 0.875000 0.648569
vt 0.629868 0.646664
vt 0.512288 0.125433
vt 0.525477 0.125679
vt 0.875000 0.634300
vt 0.633719 0.630974
vt 0.492523 0.145043
vt 0.507014 0.145269
vt 0.875000 0.610363
vt 0.634094 0.608486
vt 0.461717 0.165113
vt 0.475805 0.165319
vt 0.875000 0.587906
vt 0.630375 0.586831
vt 0.432974 0.185034
vt 0.446939 0.185221
vt 0.875000 0.566231
vt 0.627387 0.565747
vt 0.408500 0.204204
vt 0.422409 0.204370
vt 0.875000 0.545996
vt 0.625593 0.545874
vt 0.388929 0.222038
vt 0.402816 0.222184
vt 0.875000 0.527816
vt 0.625000 0.527816
vn -0.0251 0.9950 -0.0969
vn 0.0000 -1.0000 0.0000
vn -0.0677 0.9628 -0.2615
vn -0.0628 0.9681 -0.2425
vn 0.2507 0.0000 0.9681
vn -0.0274 0.9940 -0.1059
vn -0.0502 0.9797 -0.1939
vn -0.0459 0.9831 -0.1772
vn -0.0422 0.9858 -0.1627
vn -0.0387 0.9880 -0.1492
vn -0.0352 0.9901 -0.1359
vn -0.0315 0.9921 -0.1218
vn -0.0556 0.9751 -0.2145
vn 0.9681 0.0000 -0.2507
vn -0.2332 -0.8881 0.3962
vn -0.0920 -0.3250 0.9412
vn -0.7782 -0.3251 0.5374
vn -0.8267 0.3188 0.4637
vn -0.1415 0.3234 0.9356
vn -0.3406 0.9252 0.1670
vn -0.9750 -0.0015 0.2224
vn -0.5274 0.8489 0.0335
vn -0.5062 -0.8546 0.1163
vn 0.3962 -0.8881 0.2332
vn 0.9413 -0.3249 0.0921
vn 0.5374 -0.3249 0.7782
vn 0.9478 0.3187 0.0041
vn 0.3789 0.9252 -0.0193
vn 0.5779 0.3235 0.7492
vn 0.4771 0.8491 -0.2266
vn 0.9603 -0.0018 -0.2789
vn 0.4990 -0.8546 -0.1441
vn -0.3704 -0.9239 0.0959
vn -0.8943 -0.3827 0.2316
vn -0.1434 0.0001 0.9897
vn -0.7972 0.0000 0.6037
vn -0.0176 -0.9975 -0.0681
vn -0.0426 0.9855 -0.1644
vn 0.3704 -0.9239 -0.0959
vn 0.8944 -0.3825 -0.2317
vn 0.6058 0.0001 0.7956
vn 0.9900 0.0000 0.1407
vn 0.0960 -0.9239 0.3704
vn 0.2317 -0.3826 0.8944
vn 0.0331 0.9912 0.1278
vn 0.2304 0.3949 0.8894
vn -0.9184 0.3706 0.1388
vn -0.4285 0.8944 -0.1281
vn 0.8704 0.3704 -0.3245
vn 0.3124 0.8944 -0.3201
vn -0.9157 0.3731 0.1496
vn -0.4218 0.9009 -0.1022
vn 0.8731 0.3732 -0.3137
vn 0.3192 0.9009 -0.2941
vn -0.9136 0.3748 0.1575
vn -0.4168 0.9052 -0.0832
vn 0.8752 0.3749 -0.3058
vn 0.3241 0.9052 -0.2751
vn -0.9119 0.3763 0.1638
vn -0.4129 0.9083 -0.0678
vn 0.8768 0.3762 -0.2995
vn 0.3280 0.9083 -0.2597
vn -0.9105 0.3772 0.1694
vn -0.4095 0.9107 -0.0544
vn 0.8782 0.3772 -0.2939
vn 0.3315 0.9108 -0.2463
vn -0.9092 0.3780 0.1746
vn -0.4061 0.9128 -0.0419
vn 0.8796 0.3780 -0.2888
vn 0.3347 0.9128 -0.2338
vn -0.9078 0.3791 0.1796
vn -0.4030 0.9147 -0.0296
vn 0.8808 0.3791 -0.2836
vn 0.3380 0.9147 -0.2215
vn -0.9064 0.3798 0.1850
vn -0.3997 0.9165 -0.0165
vn 0.8822 0.3798 -0.2782
vn 0.3414 0.9165 -0.2085
vn -0.9048 0.3805 0.1911
vn -0.3959 0.9183 -0.0019
vn 0.8838 0.3804 -0.2722
vn 0.3451 0.9183 -0.1938
vn 0.8847 0.3809 -0.2687
vn 0.3472 0.9193 -0.1855
vn -0.9039 0.3809 0.1946
vn -0.3937 0.9192 0.0064
vn -0.4371 0.8878 -0.1440
vn -0.9197 0.3702 0.1309
vn 0.8677 0.3700 -0.3320
vn 0.3121 0.8878 -0.3381
vn -0.9681 0.0000 0.2507
usemtl None
s off
f 36/1/1 16/2/1 47/3/1 74/4/1
f 17/5/2 38/6/2 22/7/2 1/8/2
f 77/9/3 44/10/3 10/11/3 30/12/3
f 44/10/4 77/9/4 101/13/4 50/14/4
f 24/15/5 31/16/5 9/17/5 2/18/5
f 71/19/6 80/20/6 74/4/6 47/3/6
f 53/21/7 98/22/7 95/23/7 56/24/7
f 56/24/8 95/23/8 92/25/8 59/26/8
f 59/26/9 92/25/9 89/27/9 62/28/9
f 62/28/10 89/27/10 86/29/10 65/30/10
f 65/30/11 86/29/11 83/31/11 68/32/11
f 68/32/12 83/31/12 80/20/12 71/19/12
f 50/14/13 101/13/13 98/22/13 53/21/13
f 37/33/14 73/34/14 79/35/14 82/36/14 85/37/14 88/38/14 91/39/14 94/40/14 97/41/14 100/42/14 76/43/14 29/44/14 23/45/14
f 1/8/15 4/46/15 5/47/15 7/48/15
f 2/18/16 6/49/16 5/50/16 4/51/16
f 3/52/17 7/53/17 5/54/17 6/55/17
f 8/56/18 11/57/18 12/58/18 14/59/18
f 9/17/19 13/60/19 12/61/19 11/62/19
f 10/11/20 14/63/20 12/64/20 13/65/20
f 15/66/21 18/67/21 19/68/21 21/69/21
f 16/2/22 20/70/22 19/71/22 18/72/22
f 17/5/23 21/73/23 19/74/23 20/75/23
f 22/7/24 25/76/24 26/77/24 28/78/24
f 23/45/25 27/79/25 26/80/25 25/81/25
f 24/15/26 28/82/26 26/83/26 27/79/26
f 29/44/27 32/84/27 33/85/27 35/86/27
f 30/12/28 34/87/28 33/85/28 32/84/28
f 31/16/29 35/86/29 33/85/29 34/88/29
f 36/1/30 39/89/30 40/90/30 42/91/30
f 37/33/31 41/92/31 40/93/31 39/89/31
f 38/6/32 42/94/32 40/95/32 41/96/32
f 17/5/33 1/8/33 7/48/33 21/73/33
f 21/69/34 7/53/34 3/52/34 15/66/34
f 2/18/35 9/17/35 11/62/35 6/49/35
f 6/55/36 11/57/36 8/56/36 3/52/36
f 38/6/37 17/5/37 20/75/37 42/94/37
f 42/91/38 20/70/38 16/2/38 36/1/38
f 22/7/39 38/6/39 41/96/39 25/76/39
f 25/81/40 41/92/40 37/33/40 23/45/40
f 31/16/41 24/15/41 27/79/41 35/86/41
f 35/86/42 27/79/42 23/45/42 29/44/42
f 1/8/43 22/7/43 28/78/43 4/46/43
f 4/51/44 28/82/44 24/15/44 2/18/44
f 30/12/45 10/11/45 13/65/45 34/87/45
f 34/88/46 13/60/46 9/17/46 31/16/46
f 49/97/47 43/98/47 45/99/47 51/100/47
f 51/101/48 45/102/48 44/10/48 50/14/48
f 76/43/49 100/42/49 102/103/49 78/104/49
f 78/104/50 102/103/50 101/13/50 77/9/50
f 52/105/51 49/97/51 51/100/51 54/106/51
f 54/107/52 51/101/52 50/14/52 53/21/52
f 100/42/53 97/41/53 99/108/53 102/103/53
f 102/103/54 99/108/54 98/22/54 101/13/54
f 55/109/55 52/105/55 54/106/55 57/110/55
f 57/111/56 54/107/56 53/21/56 56/24/56
f 97/41/57 94/40/57 96/112/57 99/108/57
f 99/108/58 96/112/58 95/23/58 98/22/58
f 58/113/59 55/109/59 57/110/59 60/114/59
f 60/115/60 57/111/60 56/24/60 59/26/60
f 94/40/61 91/39/61 93/116/61 96/112/61
f 96/112/62 93/116/62 92/25/62 95/23/62
f 61/117/63 58/113/63 60/114/63 63/118/63
f 63/119/64 60/115/64 59/26/64 62/28/64
f 91/39/65 88/38/65 90/120/65 93/116/65
f 93/116/66 90/120/66 89/27/66 92/25/66
f 64/121/67 61/117/67 63/118/67 66/122/67
f 66/123/68 63/119/68 62/28/68 65/30/68
f 88/38/69 85/37/69 87/124/69 90/120/69
f 90/120/70 87/124/70 86/29/70 89/27/70
f 67/125/71 64/121/71 66/122/71 69/126/71
f 69/127/72 66/123/72 65/30/72 68/32/72
f 85/37/73 82/36/73 84/128/73 87/124/73
f 87/124/74 84/128/74 83/31/74 86/29/74
f 70/129/75 67/125/75 69/126/75 72/130/75
f 72/131/76 69/127/76 68/32/76 71/19/76
f 82/36/77 79/35/77 81/132/77 84/128/77
f 84/128/78 81/132/78 80/20/78 83/31/78
f 46/133/79 70/129/79 72/130/79 48/134/79
f 48/135/80 72/131/80 71/19/80 47/3/80
f 79/35/81 73/34/81 75/136/81 81/132/81
f 81/132/82 75/136/82 74/4/82 80/20/82
f 73/34/83 37/33/83 39/89/83 75/136/83
f 75/136/84 39/89/84 36/1/84 74/4/84
f 15/66/85 46/133/85 48/134/85 18/67/85
f 18/72/86 48/135/86 47/3/86 16/2/86
f 10/11/87 44/10/87 45/102/87 14/63/87
f 14/59/88 45/99/88 43/98/88 8/56/88
f 29/44/89 76/43/89 78/104/89 32/84/89
f 32/84/90 78/104/90 77/9/90 30/12/90
f 3/52/91 8/56/91 43/98/91 49/97/91 52/105/91 55/109/91 58/113/91 61/117/91 64/121/91 67/125/91 70/129/91 46/133/91 15/66/91
