# Blender v2.93.0 OBJ File: 'longledge_preapply.blend'
# www.blender.org
mtllib road.mtl
o Plane
v -14.686981 -1.119990 29.943916
v 18.138796 -1.119990 29.943916
v -14.686981 -1.119990 18.739513
v 18.138796 -1.119990 18.739513
v -14.686981 -1.702042 29.943916
v 18.138796 -1.702042 29.943916
v -14.686981 -1.702042 18.739513
v 18.138796 -1.702042 18.739513
v 3.249071 -1.119990 29.943916
v 3.249073 -1.119990 18.739513
v 3.249071 -1.702042 29.943916
v 3.249073 -1.702042 18.739513
v -14.686981 -1.119990 94.602753
v -14.686981 -1.702042 94.602753
v 3.249071 -1.119990 94.602753
v 3.249071 -1.702042 94.602753
vt 0.546402 0.000000
vt 1.000000 0.000000
vt 1.000000 1.000000
vt 0.546402 1.000000
vt 0.546402 0.000000
vt 0.546402 1.000000
vt 1.000000 1.000000
vt 1.000000 0.000000
vt 0.000000 1.000000
vt 0.000000 1.000000
vt 0.000000 0.000000
vt 0.000000 0.000000
vt 0.546402 0.000000
vt 0.546402 0.000000
vt 0.000000 0.000000
vt 0.000000 0.000000
vn 0.0000 1.0000 0.0000
vn 0.0000 -1.0000 0.0000
vn 1.0000 0.0000 0.0000
vn -1.0000 0.0000 0.0000
vn 0.0000 0.0000 -1.0000
vn 0.0000 0.0000 1.0000
usemtl Material.004
s off
f 9/1/1 2/2/1 4/3/1 10/4/1
f 11/5/2 12/6/2 8/7/2 6/8/2
f 2/2/3 6/8/3 8/7/3 4/3/3
f 3/9/4 7/10/4 5/11/4 1/12/4
f 10/4/5 12/6/5 7/10/5 3/9/5
f 9/1/6 11/5/6 6/8/6 2/2/6
f 11/5/3 9/1/3 15/13/3 16/14/3
f 4/3/5 8/7/5 12/6/5 10/4/5
f 5/11/2 7/10/2 12/6/2 11/5/2
f 1/12/1 9/1/1 10/4/1 3/9/1
f 13/15/6 14/16/6 16/14/6 15/13/6
f 5/11/2 11/5/2 16/14/2 14/16/2
f 9/1/1 1/12/1 13/15/1 15/13/1
f 1/12/4 5/11/4 14/16/4 13/15/4
